<?xml version="1.0" encoding="iso-8859-1"?>
<!-- Generator: Adobe Illustrator 23.0.2, SVG Export Plug-In . SVG Version: 6.00 Build 0)  -->
<svg version="1.1" id="Layer_1" xmlns="http://www.w3.org/2000/svg" xmlns:xlink="http://www.w3.org/1999/xlink" x="0px" y="0px"
	 viewBox="0 0 31.6 31.6" style="enable-background:new 0 0 31.6 31.6;" xml:space="preserve">
<g>
	<path style="fill:#5F6062;" d="M15.8,30.6C7.639,30.6,1,23.96,1,15.8C1,7.639,7.639,1,15.8,1c8.16,0,14.8,6.639,14.8,14.8
		C30.6,23.96,23.96,30.6,15.8,30.6 M15.8,0C7.088,0,0,7.088,0,15.8C0,24.512,7.088,31.6,15.8,31.6c8.712,0,15.8-7.087,15.8-15.799
		C31.6,7.088,24.512,0,15.8,0"/>
	<path style="fill:#5F6062;" d="M21.216,19.412c0.235-0.987,0.796-1.65,2.773-2.816c1.813-1.077,2.596-1.755,2.596-3.349
		c0-1.901-1.373-2.816-3.51-2.816c-1.283,0-2.597,0.53-3.525,1.401l0.988,1.18c0.664-0.635,1.621-1.033,2.492-1.033
		c1.416,0,1.977,0.532,1.977,1.357c0,0.723-0.354,1.18-1.756,2.007c-2.034,1.209-3.863,2.55-3.968,5.574h7.404v-1.505H21.216z"/>
	<path style="fill:#5F6062;" d="M18.174,13.838h-0.928l-0.314,0.566c-0.158,0.291-0.354,0.685-0.442,0.841
		c-0.069-0.156-0.266-0.526-0.431-0.826l-0.323-0.581H14.8l1.211,1.989l-1.298,2.141h0.913l0.4-0.708
		c0.157-0.283,0.377-0.685,0.448-0.843c0.079,0.158,0.267,0.535,0.433,0.834l0.394,0.717h0.96l-1.306-2.141L18.174,13.838z"/>
	<path style="fill:#5F6062;" d="M12.407,12.34H6.413c-0.039-0.338-0.062-0.576-0.062-0.672C6.344,10.523,6.747,9.454,7.46,8.735
		c0.537-0.541,1.188-0.827,1.909-0.827c1.691,0.014,3.077,1.733,3.091,3.832C12.46,11.832,12.44,12.045,12.407,12.34 M10.917,22.539
		c-0.221,1.233-0.335,1.233-1.069,1.233l-0.495-0.003c-1.21,0-1.282,0-1.512-1.255c-0.119-0.652-0.934-6.274-1.305-9.173h5.746
		C11.903,16.205,11.036,21.871,10.917,22.539 M9.345,6.908c-0.954,0-1.875,0.398-2.595,1.123c-0.898,0.905-1.408,2.234-1.398,3.644
		c0.006,0.879,1.356,10.206,1.505,11.017c0.363,1.983,1.105,2.076,2.548,2.076l0.443,0.003c1.188,0,1.735-0.286,2.054-2.056
		c0.088-0.49,1.566-10.052,1.559-10.982C13.442,9.091,11.611,6.927,9.345,6.908"/>
	<path style="fill:#5F6062;" d="M9.346,8.907c-0.787,0-1.425,0.638-1.425,1.425c0,0.787,0.638,1.425,1.425,1.425
		s1.425-0.638,1.425-1.425C10.771,9.545,10.133,8.907,9.346,8.907"/>
</g>
</svg>
