<?xml version="1.0" encoding="iso-8859-1"?>
<!-- Generator: Adobe Illustrator 23.0.2, SVG Export Plug-In . SVG Version: 6.00 Build 0)  -->
<svg version="1.1" id="Layer_1" xmlns="http://www.w3.org/2000/svg" xmlns:xlink="http://www.w3.org/1999/xlink" x="0px" y="0px"
	 viewBox="0 0 31.6 31.6" style="enable-background:new 0 0 31.6 31.6;" xml:space="preserve">
<path style="fill:#5F6062;" d="M26.771,17.656c0-1.289-0.712-2.089-1.689-2.371c0.712-0.4,1.26-1.022,1.26-2.267
	c0-1.808-1.586-2.816-3.542-2.816c-1.304,0-2.356,0.504-3.231,1.408l1.156,1.097c0.578-0.608,1.23-0.964,2.045-0.964
	c1.527,0,1.957,0.83,1.957,1.423c0,0.785-0.504,1.423-1.468,1.423H22.31V16.1h0.963c1.082,0,1.883,0.489,1.883,1.556
	c0,1.067-0.608,1.705-2.268,1.705c-0.934,0-1.912-0.386-2.549-1.186l-1.186,1.008c0.726,1.067,2.268,1.719,3.734,1.719
	C25.317,20.902,26.771,19.776,26.771,17.656 M18.437,17.775l-1.312-2.15l1.225-2h-0.933l-0.316,0.569
	c-0.158,0.293-0.355,0.688-0.441,0.846c-0.072-0.158-0.27-0.529-0.436-0.83l-0.324-0.585h-0.94l1.217,2l-1.304,2.15h0.916
	l0.404-0.711c0.157-0.285,0.379-0.688,0.45-0.846c0.079,0.158,0.269,0.537,0.435,0.838l0.396,0.719H18.437z"/>
<path style="fill:#5F6062;" d="M15.8,30.6C7.639,30.6,1,23.96,1,15.8C1,7.639,7.639,1,15.8,1c8.16,0,14.8,6.639,14.8,14.8
	C30.6,23.96,23.96,30.6,15.8,30.6 M15.8,0C7.088,0,0,7.088,0,15.8C0,24.512,7.088,31.6,15.8,31.6c8.712,0,15.8-7.087,15.8-15.799
	C31.6,7.088,24.512,0,15.8,0"/>
<path style="fill:#5F6062;" d="M12.407,12.34H6.413c-0.038-0.338-0.062-0.576-0.062-0.672c-0.008-1.146,0.396-2.215,1.109-2.933
	c0.536-0.541,1.187-0.827,1.908-0.827c1.691,0.014,3.077,1.733,3.091,3.832C12.46,11.832,12.44,12.045,12.407,12.34 M10.917,22.539
	c-0.221,1.233-0.335,1.233-1.07,1.233l-0.494-0.003c-1.211,0-1.282,0-1.512-1.255c-0.119-0.652-0.934-6.274-1.305-9.173h5.746
	C11.903,16.205,11.036,21.871,10.917,22.539 M9.345,6.908c-0.955,0-1.875,0.398-2.594,1.123c-0.899,0.905-1.409,2.234-1.399,3.644
	c0.006,0.879,1.357,10.206,1.505,11.017c0.363,1.983,1.105,2.076,2.548,2.076l0.442,0.003c1.189,0,1.736-0.286,2.055-2.056
	c0.088-0.49,1.566-10.052,1.559-10.982C13.442,9.091,11.611,6.927,9.345,6.908"/>
<path style="fill:#5F6062;" d="M9.345,8.907c-0.786,0-1.424,0.638-1.424,1.425c0,0.787,0.638,1.425,1.424,1.425
	c0.787,0,1.426-0.638,1.426-1.425C10.771,9.545,10.132,8.907,9.345,8.907"/>
</svg>
