<?xml version="1.0" encoding="iso-8859-1"?>
<!-- Generator: Adobe Illustrator 23.0.2, SVG Export Plug-In . SVG Version: 6.00 Build 0)  -->
<svg version="1.1" id="Layer_1" xmlns="http://www.w3.org/2000/svg" xmlns:xlink="http://www.w3.org/1999/xlink" x="0px" y="0px"
	 viewBox="0 0 31.6 31.6" style="enable-background:new 0 0 31.6 31.6;" xml:space="preserve">
<path style="fill:#5F6062;" d="M15.8,30.6C7.639,30.6,1,23.96,1,15.8C1,7.639,7.639,1,15.8,1c8.159,0,14.8,6.639,14.8,14.8
	C30.6,23.96,23.959,30.6,15.8,30.6 M15.8,0C7.088,0,0,7.088,0,15.8C0,24.512,7.088,31.6,15.8,31.6c8.712,0,15.8-7.087,15.8-15.799
	C31.6,7.088,24.512,0,15.8,0"/>
<path style="fill:#5F6062;" d="M12.319,8.052h1.401c0.058,0.304,0.175,0.588,0.343,0.835l-0.995,0.995
	c-0.167,0.167-0.167,0.437,0,0.604c0.083,0.084,0.193,0.126,0.302,0.126c0.11,0,0.219-0.042,0.303-0.126l0.996-0.996
	c0.241,0.163,0.518,0.279,0.815,0.337v1.409c0,0.236,0.19,0.427,0.427,0.427c0.237,0,0.428-0.191,0.428-0.427V9.829
	c0.303-0.058,0.584-0.175,0.83-0.341l0.998,0.998c0.084,0.084,0.194,0.126,0.303,0.126c0.109,0,0.22-0.042,0.303-0.126
	c0.167-0.167,0.168-0.437,0.001-0.604l-0.999-1c0.166-0.246,0.281-0.528,0.339-0.83h1.41c0.235,0,0.427-0.191,0.427-0.428
	c0-0.236-0.191-0.427-0.427-0.427h-1.411c-0.059-0.295-0.176-0.57-0.337-0.811l0.998-0.998c0.167-0.167,0.166-0.438-0.001-0.605
	c-0.166-0.167-0.438-0.167-0.605,0L17.17,5.78c-0.247-0.167-0.529-0.285-0.832-0.343V4.034c0-0.237-0.19-0.428-0.428-0.428
	c-0.236,0-0.427,0.191-0.427,0.428v1.405c-0.297,0.058-0.574,0.174-0.816,0.338l-0.994-0.995c-0.167-0.167-0.438-0.167-0.604,0
	c-0.167,0.167-0.167,0.438,0,0.605l0.994,0.994c-0.164,0.242-0.282,0.518-0.34,0.816h-1.403c-0.236,0-0.428,0.191-0.428,0.427
	C11.892,7.861,12.083,8.052,12.319,8.052"/>
<path style="fill:#5F6062;" d="M7.225,21.755c-0.388,0.673-0.157,1.533,0.515,1.921c0.673,0.388,1.532,0.158,1.921-0.516
	c0.724-1.253,0.884-3.595,1.648-5.667C9.887,19.186,7.948,20.502,7.225,21.755"/>
<path style="fill:#5F6062;" d="M7.25,19.678c0.385-0.668,0.47-1.914,0.878-3.017c-0.758,0.901-1.79,1.601-2.175,2.268
	c-0.207,0.357-0.084,0.815,0.273,1.023C6.585,20.158,7.043,20.035,7.25,19.678"/>
<path style="fill:#5F6062;" d="M24.755,20.083l0.807-2.265c0.035-0.099,0.007-0.21-0.074-0.278c-0.079-0.07-0.192-0.083-0.286-0.034
	l-2.119,1.113l-1.151-1.42c-0.061-0.077-0.157-0.109-0.256-0.089c-0.096,0.023-0.17,0.097-0.19,0.192l-0.433,1.885l-1.004-0.214
	c-0.099-0.022-0.19,0.015-0.252,0.089c-0.061,0.075-0.074,0.177-0.035,0.265l1.245,2.788l-0.879,0.983
	c-0.149,0.168-0.137,0.426,0.032,0.577c0.078,0.07,0.175,0.104,0.272,0.104c0.112,0,0.224-0.046,0.305-0.136l0.905-1.011
	l2.871,0.828c0.023,0.007,0.049,0.01,0.071,0.01c0.07,0,0.139-0.029,0.188-0.082c0.064-0.071,0.086-0.173,0.051-0.263l-0.36-0.957
	l1.816-0.696c0.092-0.035,0.156-0.119,0.164-0.217c0.008-0.097-0.04-0.191-0.124-0.241L24.755,20.083z"/>
<path style="fill:#5F6062;" d="M25.93,10.692c0.27-0.156,0.361-0.5,0.206-0.769c-0.155-0.267-0.496-0.36-0.768-0.206l-9.495,5.483
	L6.376,9.718C6.108,9.565,5.763,9.654,5.607,9.924c-0.155,0.269-0.063,0.613,0.206,0.769l9.496,5.483V27.14
	c0,0.311,0.252,0.563,0.562,0.563c0.31,0,0.561-0.252,0.561-0.563V16.176L25.93,10.692z"/>
</svg>
