<?xml version="1.0" encoding="iso-8859-1"?>
<!-- Generator: Adobe Illustrator 23.0.2, SVG Export Plug-In . SVG Version: 6.00 Build 0)  -->
<svg version="1.1" id="Layer_1" xmlns="http://www.w3.org/2000/svg" xmlns:xlink="http://www.w3.org/1999/xlink" x="0px" y="0px"
	 viewBox="0 0 31.601 31.6" style="enable-background:new 0 0 31.601 31.6;" xml:space="preserve">
<path style="fill:#5F6062;" d="M15.801,30.6C7.64,30.6,1,23.96,1,15.8C1,7.639,7.64,1,15.801,1c8.16,0,14.8,6.639,14.8,14.8
	C30.601,23.96,23.96,30.6,15.801,30.6 M15.801,0C7.089,0,0,7.088,0,15.8C0,24.512,7.089,31.6,15.801,31.6
	c8.712,0,15.8-7.087,15.8-15.799C31.601,7.088,24.513,0,15.801,0"/>
<path style="fill:#5F6062;" d="M27.218,15.351H16.333V4.526c0-0.277-0.223-0.5-0.5-0.5c-0.276,0-0.5,0.223-0.5,0.5v10.825H4.677
	c-0.275,0-0.5,0.224-0.5,0.5c0,0.276,0.225,0.5,0.5,0.5h10.656v10.746c0,0.276,0.224,0.5,0.5,0.5c0.277,0,0.5-0.224,0.5-0.5V16.351
	h10.885c0.277,0,0.5-0.224,0.5-0.5C27.718,15.575,27.496,15.351,27.218,15.351"/>
<path style="fill:#5F6062;" d="M18.357,9.869h1.399c0.06,0.304,0.176,0.587,0.344,0.835l-0.994,0.995
	c-0.166,0.167-0.168,0.437,0,0.604c0.084,0.084,0.191,0.126,0.303,0.126c0.107,0,0.219-0.042,0.301-0.126l0.998-0.996
	c0.242,0.163,0.516,0.279,0.814,0.337v1.409c0,0.236,0.189,0.427,0.428,0.427c0.234,0,0.428-0.191,0.428-0.427v-1.407
	c0.301-0.058,0.584-0.175,0.83-0.341l0.998,0.998c0.084,0.084,0.193,0.126,0.301,0.126c0.111,0,0.219-0.042,0.303-0.126
	c0.166-0.167,0.168-0.437,0-0.604l-0.998-1c0.166-0.246,0.281-0.528,0.34-0.83h1.408c0.236,0,0.43-0.191,0.43-0.428
	c0-0.236-0.193-0.427-0.43-0.427h-1.41c-0.059-0.295-0.176-0.57-0.336-0.811l0.996-0.998c0.168-0.168,0.168-0.438,0-0.605
	c-0.168-0.167-0.436-0.167-0.604,0l-0.998,0.997c-0.246-0.167-0.529-0.285-0.83-0.343V5.852c0-0.237-0.193-0.428-0.428-0.428
	c-0.238,0-0.428,0.191-0.428,0.428v1.405c-0.299,0.058-0.574,0.174-0.816,0.338L19.708,6.6c-0.166-0.167-0.436-0.167-0.604,0
	c-0.168,0.167-0.166,0.438,0,0.605l0.994,0.993c-0.164,0.243-0.281,0.519-0.342,0.817h-1.4c-0.236,0-0.43,0.191-0.43,0.427
	C17.927,9.678,18.121,9.869,18.357,9.869"/>
<path style="fill:#5F6062;" d="M9.105,12.88c0.673,0.388,1.531,0.157,1.921-0.516c0.723-1.253,0.883-3.595,1.647-5.667
	C11.252,8.39,9.314,9.705,8.59,10.958C8.202,11.632,8.433,12.491,9.105,12.88"/>
<path style="fill:#5F6062;" d="M7.593,9.156C7.95,9.362,8.408,9.24,8.615,8.883C9,8.214,9.085,6.967,9.493,5.864
	c-0.758,0.901-1.79,1.603-2.175,2.27C7.111,8.491,7.234,8.949,7.593,9.156"/>
<path style="fill:#5F6062;" d="M23.824,21.596l0.807-2.265c0.035-0.099,0.006-0.21-0.074-0.278c-0.08-0.07-0.193-0.083-0.287-0.034
	l-2.119,1.113l-1.15-1.42c-0.062-0.076-0.16-0.109-0.256-0.089c-0.096,0.023-0.17,0.097-0.191,0.192L20.121,20.7l-1.004-0.214
	c-0.102-0.021-0.193,0.014-0.254,0.089c-0.06,0.075-0.072,0.177-0.033,0.265l1.246,2.788l-0.881,0.983
	c-0.148,0.168-0.137,0.426,0.033,0.577c0.078,0.07,0.174,0.104,0.274,0.104c0.111,0,0.223-0.046,0.305-0.136l0.902-1.011
	l2.873,0.828c0.023,0.007,0.049,0.01,0.07,0.01c0.07,0,0.141-0.029,0.189-0.082c0.065-0.071,0.086-0.173,0.051-0.263l-0.361-0.957
	l1.816-0.696c0.092-0.035,0.156-0.119,0.164-0.217c0.008-0.097-0.039-0.191-0.123-0.241L23.824,21.596z"/>
<path style="fill:#5F6062;" d="M11.164,21.674l0.49-0.278l1.238,0.344c0.028,0.008,0.057,0.012,0.085,0.012
	c0.142,0,0.271-0.093,0.31-0.235c0.047-0.171-0.053-0.347-0.224-0.394l-0.621-0.173l0.534-0.301
	c0.154-0.087,0.209-0.283,0.121-0.437c-0.086-0.154-0.281-0.209-0.436-0.121l-0.532,0.3l0.171-0.616
	c0.047-0.171-0.052-0.348-0.223-0.395c-0.172-0.048-0.349,0.053-0.396,0.224l-0.336,1.213l-1.119,0.638v-1.264l0.909-0.909
	c0.125-0.125,0.125-0.328,0-0.453s-0.328-0.125-0.453,0l-0.456,0.456v-0.613c0-0.178-0.144-0.321-0.321-0.321
	c-0.177,0-0.319,0.143-0.319,0.321v0.609L9.135,18.83c-0.125-0.125-0.328-0.125-0.453,0s-0.125,0.328,0,0.453l0.905,0.905v1.258
	L8.518,20.79l-0.3-1.249c-0.041-0.172-0.215-0.278-0.386-0.237c-0.172,0.041-0.278,0.214-0.237,0.387l0.15,0.626l-0.523-0.32
	c-0.152-0.091-0.348-0.045-0.441,0.106c-0.092,0.151-0.045,0.348,0.106,0.441l0.519,0.318L6.786,21.01
	c-0.173,0.041-0.278,0.214-0.237,0.387c0.035,0.147,0.167,0.246,0.311,0.246c0.025,0,0.052-0.003,0.076-0.01l1.244-0.298
	l1.089,0.667l-1.114,0.634l-1.232-0.341c-0.171-0.049-0.348,0.052-0.396,0.224c-0.047,0.17,0.054,0.347,0.225,0.394l0.618,0.171
	l-0.532,0.303c-0.154,0.088-0.208,0.284-0.12,0.437c0.059,0.104,0.167,0.162,0.279,0.162c0.054,0,0.107-0.013,0.157-0.042
	l0.531-0.302L7.513,24.26c-0.047,0.17,0.053,0.347,0.224,0.393c0.028,0.008,0.058,0.012,0.085,0.012c0.142,0,0.271-0.093,0.31-0.235
	l0.344-1.239l1.112-0.634v0.722v0.218v0.346l-0.909,0.909c-0.125,0.125-0.125,0.328,0,0.453c0.062,0.062,0.145,0.093,0.227,0.093
	s0.164-0.031,0.227-0.093l0.456-0.456v0.614c0,0.177,0.143,0.32,0.319,0.32c0.178,0,0.321-0.143,0.321-0.32v-0.611l0.452,0.453
	c0.062,0.062,0.144,0.093,0.227,0.093c0.082,0,0.164-0.031,0.226-0.093c0.125-0.125,0.125-0.328,0-0.453l-0.905-0.906v-0.349v-0.218
	v-0.69l0.586,0.359c0.001,0.001,0.001,0.001,0.001,0.002l0.482,0.295l0.3,1.248c0.035,0.147,0.166,0.246,0.311,0.246
	c0.025,0,0.051-0.002,0.075-0.009c0.172-0.041,0.278-0.214,0.237-0.386l-0.151-0.626l0.524,0.321
	c0.052,0.031,0.11,0.047,0.167,0.047c0.107,0,0.213-0.055,0.273-0.153c0.093-0.151,0.046-0.348-0.106-0.441l-0.521-0.319
	l0.621-0.149c0.174-0.041,0.279-0.214,0.237-0.386c-0.041-0.172-0.216-0.279-0.386-0.237L11.634,22.7l-0.077-0.048
	c0,0-0.001,0-0.002-0.001l-1.027-0.629l0.586-0.334C11.13,21.682,11.147,21.684,11.164,21.674"/>
</svg>
