<?xml version="1.0" encoding="iso-8859-1"?>
<!-- Generator: Adobe Illustrator 23.0.2, SVG Export Plug-In . SVG Version: 6.00 Build 0)  -->
<svg version="1.1" id="Layer_1" xmlns="http://www.w3.org/2000/svg" xmlns:xlink="http://www.w3.org/1999/xlink" x="0px" y="0px"
	 viewBox="0 0 31.601 31.6" style="enable-background:new 0 0 31.601 31.6;" xml:space="preserve">
<path style="fill:#5F6062;" d="M15.801,30.6C7.64,30.6,1,23.96,1,15.8C1,7.639,7.64,1,15.801,1c8.16,0,14.8,6.639,14.8,14.8
	C30.601,23.96,23.96,30.6,15.801,30.6 M15.801,0C7.088,0,0,7.088,0,15.8c0,8.712,7.088,15.8,15.801,15.8
	c8.712,0,15.8-7.088,15.8-15.8C31.601,7.088,24.513,0,15.801,0"/>
<path style="fill:#5F6062;" d="M27.624,12.506c0,0.496-0.375,0.88-0.863,0.88c-0.48,0-0.865-0.384-0.865-0.88
	c0-0.472,0.385-0.864,0.865-0.864C27.249,11.642,27.624,12.034,27.624,12.506 M28.345,12.506c0-0.88-0.689-1.576-1.584-1.576
	c-0.889,0-1.584,0.696-1.584,1.576c0,0.904,0.695,1.592,1.584,1.592C27.656,14.098,28.345,13.41,28.345,12.506 M22.765,16.041
	c0,2.138-0.668,3.753-2.457,3.753c-1.775,0-2.488-1.644-2.488-3.782c0-2.138,0.684-3.753,2.459-3.753
	C22.068,12.259,22.765,13.903,22.765,16.041 M24.308,16.012c0-3.084-1.367-5.237-4-5.237s-4.03,2.182-4.03,5.266
	s1.368,5.237,4,5.237S24.308,19.096,24.308,16.012 M14.911,18.092c0-1.265-0.698-2.051-1.658-2.327
	c0.698-0.393,1.235-1.004,1.235-2.226c0-1.774-1.556-2.764-3.476-2.764c-1.28,0-2.313,0.495-3.171,1.382l1.134,1.077
	c0.568-0.597,1.208-0.946,2.008-0.946c1.498,0,1.92,0.815,1.92,1.397c0,0.772-0.495,1.397-1.439,1.397h-0.931v1.484h0.944
	c1.062,0,1.849,0.48,1.849,1.527s-0.598,1.673-2.227,1.673c-0.916,0-1.876-0.378-2.502-1.164L7.435,19.59
	c0.712,1.048,2.226,1.688,3.665,1.688C13.485,21.278,14.911,20.172,14.911,18.092 M7.333,15.052H3.696v1.484h3.637V15.052z"/>
</svg>
