<?xml version="1.0" encoding="iso-8859-1"?>
<!-- Generator: Adobe Illustrator 23.0.2, SVG Export Plug-In . SVG Version: 6.00 Build 0)  -->
<svg version="1.1" id="Layer_1" xmlns="http://www.w3.org/2000/svg" xmlns:xlink="http://www.w3.org/1999/xlink" x="0px" y="0px"
	 viewBox="0 0 31.6 31.6" style="enable-background:new 0 0 31.6 31.6;" xml:space="preserve">
<g>
	<path style="fill:#5F6062;" d="M15.8,30.6C7.639,30.6,1,23.96,1,15.8C1,7.639,7.639,1,15.8,1c8.16,0,14.8,6.639,14.8,14.8
		C30.6,23.96,23.96,30.6,15.8,30.6 M15.8,0C7.088,0,0,7.088,0,15.8C0,24.512,7.088,31.6,15.8,31.6c8.711,0,15.8-7.087,15.8-15.799
		C31.6,7.088,24.511,0,15.8,0"/>
	<path style="fill:#5F6062;" d="M25.515,12.5c0,0.496-0.376,0.88-0.864,0.88c-0.479,0-0.864-0.384-0.864-0.88
		c0-0.472,0.385-0.864,0.864-0.864C25.139,11.636,25.515,12.027,25.515,12.5 M26.234,12.5c0-0.88-0.688-1.576-1.584-1.576
		c-0.888,0-1.584,0.696-1.584,1.576c0,0.904,0.696,1.592,1.584,1.592C25.546,14.091,26.234,13.403,26.234,12.5 M20.946,16.035
		c0,2.139-0.669,3.753-2.458,3.753c-1.774,0-2.486-1.643-2.486-3.782c0-2.138,0.683-3.752,2.458-3.752
		C20.249,12.253,20.946,13.896,20.946,16.035 M22.488,16.005c0-3.083-1.366-5.236-4-5.236c-2.633,0-4.028,2.182-4.028,5.265
		c0,3.084,1.367,5.237,4,5.237C21.093,21.271,22.488,19.089,22.488,16.005 M13.005,21.111v-1.484H7.607
		c0.233-0.974,0.786-1.629,2.735-2.778c1.789-1.062,2.559-1.731,2.559-3.302c0-1.876-1.352-2.778-3.462-2.778
		c-1.265,0-2.56,0.524-3.476,1.382l0.974,1.163c0.655-0.625,1.601-1.018,2.459-1.018c1.396,0,1.949,0.524,1.949,1.338
		c0,0.713-0.349,1.164-1.731,1.979c-2.008,1.192-3.811,2.516-3.912,5.498H13.005z"/>
</g>
<path style="fill:#5F6062;" d="M15.8,30.6C7.639,30.6,1,23.96,1,15.8C1,7.639,7.639,1,15.8,1c8.16,0,14.8,6.639,14.8,14.8
	C30.6,23.96,23.96,30.6,15.8,30.6 M15.8,0C7.088,0,0,7.088,0,15.8C0,24.512,7.088,31.6,15.8,31.6c8.711,0,15.8-7.087,15.8-15.799
	C31.6,7.088,24.511,0,15.8,0"/>
<path style="fill:#5F6062;" d="M25.515,12.5c0,0.496-0.376,0.88-0.864,0.88c-0.479,0-0.864-0.384-0.864-0.88
	c0-0.472,0.385-0.864,0.864-0.864C25.139,11.636,25.515,12.027,25.515,12.5 M26.234,12.5c0-0.88-0.688-1.576-1.584-1.576
	c-0.888,0-1.584,0.696-1.584,1.576c0,0.904,0.696,1.592,1.584,1.592C25.546,14.091,26.234,13.403,26.234,12.5 M20.946,16.035
	c0,2.139-0.669,3.753-2.458,3.753c-1.774,0-2.486-1.643-2.486-3.782c0-2.138,0.683-3.752,2.458-3.752
	C20.249,12.253,20.946,13.896,20.946,16.035 M22.488,16.005c0-3.083-1.366-5.236-4-5.236c-2.633,0-4.028,2.182-4.028,5.265
	c0,3.084,1.367,5.237,4,5.237C21.093,21.271,22.488,19.089,22.488,16.005 M13.005,21.111v-1.484H7.607
	c0.233-0.974,0.786-1.629,2.735-2.778c1.789-1.062,2.559-1.731,2.559-3.302c0-1.876-1.352-2.778-3.462-2.778
	c-1.265,0-2.56,0.524-3.476,1.382l0.974,1.163c0.655-0.625,1.601-1.018,2.459-1.018c1.396,0,1.949,0.524,1.949,1.338
	c0,0.713-0.349,1.164-1.731,1.979c-2.008,1.192-3.811,2.516-3.912,5.498H13.005z"/>
</svg>
