<?xml version="1.0" encoding="iso-8859-1"?>
<!-- Generator: Adobe Illustrator 23.0.2, SVG Export Plug-In . SVG Version: 6.00 Build 0)  -->
<svg version="1.1" id="Layer_1" xmlns="http://www.w3.org/2000/svg" xmlns:xlink="http://www.w3.org/1999/xlink" x="0px" y="0px"
	 viewBox="0 0 31.6 31.601" style="enable-background:new 0 0 31.6 31.601;" xml:space="preserve">
<path style="fill:#5F6062;" d="M15.8,30.601C7.639,30.601,1,23.96,1,15.8C1,7.639,7.639,1,15.8,1c8.16,0,14.8,6.639,14.8,14.8
	C30.6,23.96,23.96,30.601,15.8,30.601 M15.8,0C7.088,0,0,7.088,0,15.8c0,8.712,7.088,15.8,15.8,15.8c8.712,0,15.8-7.088,15.8-15.8
	C31.6,7.088,24.512,0,15.8,0"/>
<path style="fill:#5F6062;" d="M20.193,12.133c0.673,0.388,1.531,0.157,1.921-0.516c0.723-1.253,0.883-3.595,1.647-5.667
	c-1.423,1.693-3.359,3.009-4.084,4.262C19.291,10.885,19.521,11.744,20.193,12.133"/>
<path style="fill:#5F6062;" d="M18.681,8.408c0.358,0.207,0.814,0.084,1.021-0.273c0.387-0.668,0.472-1.916,0.88-3.019
	c-0.759,0.901-1.791,1.603-2.176,2.27C18.198,7.743,18.322,8.201,18.681,8.408"/>
<path style="fill:#5F6062;" d="M7.931,16.466c0.093,0.21,0.299,0.335,0.515,0.335c0.076,0,0.153-0.016,0.227-0.049
	c0.284-0.125,0.412-0.458,0.286-0.742l-0.671-1.515l8.422,3.282c0.066,0.027,0.136,0.039,0.204,0.039
	c0.185,0,0.364-0.092,0.471-0.254l2.151-3.281c0.17-0.26,0.098-0.609-0.162-0.779c-0.263-0.171-0.607-0.096-0.778,0.162l-1.902,2.9
	l-8.033-3.131l1.547-0.693c0.283-0.127,0.41-0.459,0.283-0.743c-0.126-0.283-0.46-0.412-0.743-0.283l-2.761,1.236
	c-0.283,0.127-0.409,0.458-0.284,0.742L7.931,16.466z"/>
<path style="fill:#5F6062;" d="M22.026,24.544c0,0.194,0.01,0.635,0.01,0.766c-0.045-0.09-0.158-0.266-0.245-0.397l-1.24-1.849
	h-0.67v3.5h0.69v-1.541c0-0.194-0.01-0.633-0.01-0.763c0.045,0.09,0.159,0.264,0.245,0.394l1.285,1.91h0.625v-3.5h-0.69V24.544z"/>
<path style="fill:#5F6062;" d="M18.256,24.769c-0.029,0.165-0.069,0.43-0.084,0.575c-0.025-0.146-0.08-0.405-0.121-0.575
	l-0.414-1.705h-0.609l-0.411,1.705c-0.04,0.17-0.095,0.43-0.12,0.575c-0.015-0.146-0.055-0.405-0.085-0.575l-0.305-1.705h-0.729
	l0.729,3.5h0.655l0.44-1.8c0.051-0.205,0.1-0.47,0.115-0.6c0.019,0.13,0.07,0.39,0.12,0.6l0.43,1.8h0.685l0.73-3.5h-0.72
	L18.256,24.769z"/>
<path style="fill:#5F6062;" d="M13.536,25.924c-0.49,0-0.83-0.405-0.83-1.114c0-0.711,0.325-1.107,0.815-1.107
	c0.489,0,0.83,0.406,0.83,1.114C14.352,25.528,14.026,25.924,13.536,25.924 M13.536,23.009c-0.915,0-1.55,0.68-1.55,1.809
	c0,1.131,0.625,1.801,1.54,1.801c0.91,0,1.545-0.68,1.545-1.809C15.071,23.679,14.446,23.009,13.536,23.009"/>
<path style="fill:#5F6062;" d="M9.791,25.884H9.446v-2.14h0.37c0.74,0,1.045,0.355,1.045,1.07
	C10.861,25.454,10.526,25.884,9.791,25.884 M9.842,23.063H8.746v3.5h1.045c0.9,0,1.79-0.52,1.79-1.75
	C11.581,23.534,10.842,23.063,9.842,23.063"/>
<path style="fill:#5F6062;" d="M26.797,19.667H4.825c-0.276,0-0.5,0.224-0.5,0.5c0,0.276,0.224,0.5,0.5,0.5h21.972
	c0.276,0,0.5-0.224,0.5-0.5C27.297,19.891,27.073,19.667,26.797,19.667"/>
</svg>
