<?xml version="1.0" encoding="iso-8859-1"?>
<!-- Generator: Adobe Illustrator 23.0.2, SVG Export Plug-In . SVG Version: 6.00 Build 0)  -->
<svg version="1.1" id="Layer_1" xmlns="http://www.w3.org/2000/svg" xmlns:xlink="http://www.w3.org/1999/xlink" x="0px" y="0px"
	 viewBox="0 0 31.602 31.602" style="enable-background:new 0 0 31.602 31.602;" xml:space="preserve">
<path style="fill:none;" d="M31.602,15.801c0,8.726-7.073,15.801-15.8,15.801C7.075,31.602,0,24.527,0,15.801
	C0,7.075,7.075,0,15.802,0C24.528,0,31.602,7.075,31.602,15.801z"/>
<path style="fill:#5F6062;" d="M15.801,30.6c-8.161,0-14.8-6.64-14.8-14.8C1.001,7.639,7.64,1,15.801,1
	c8.161,0,14.8,6.639,14.8,14.8C30.601,23.96,23.962,30.6,15.801,30.6 M15.801,0c-8.712,0-15.8,7.088-15.8,15.8
	c0,8.712,7.088,15.8,15.8,15.8c8.712,0,15.8-7.088,15.8-15.8C31.601,7.088,24.513,0,15.801,0"/>
<path style="fill:#5F6062;" d="M11.94,10.015h2.199c0.277,0,0.5-0.224,0.5-0.5s-0.223-0.5-0.5-0.5H11.94c-0.276,0-0.5,0.224-0.5,0.5
	S11.664,10.015,11.94,10.015"/>
<path style="fill:#5F6062;" d="M17.368,10.015h2.199c0.276,0,0.5-0.224,0.5-0.5s-0.224-0.5-0.5-0.5h-2.199
	c-0.276,0-0.5,0.224-0.5,0.5S17.092,10.015,17.368,10.015"/>
<path style="fill:#5F6062;" d="M24.621,9.015h-1.322l0.679-0.679c0.244-0.244,0.244-0.641,0-0.885c-0.244-0.243-0.64-0.243-0.884,0
	l-1.106,1.105c-0.117,0.118-0.183,0.277-0.183,0.442v15.187H9.678V8.999c0-0.165-0.066-0.324-0.183-0.442L8.275,7.339
	c-0.244-0.244-0.639-0.244-0.883,0c-0.245,0.244-0.245,0.639,0,0.884l0.792,0.792H6.796c-0.277,0-0.5,0.224-0.5,0.5
	s0.223,0.5,0.5,0.5h1.631v14.797c0,0.345,0.28,0.625,0.625,0.625h13.378c0.345,0,0.625-0.28,0.625-0.625V10.015h1.565
	c0.276,0,0.5-0.224,0.5-0.5S24.897,9.015,24.621,9.015"/>
<path style="fill:#5F6062;" d="M20.047,17.486c0,1.108-0.195,1.671-0.66,1.671c-0.477,0-0.681-0.576-0.681-1.685
	s0.197-1.671,0.667-1.671C19.844,15.801,20.047,16.377,20.047,17.486 M20.939,17.472c0-1.411-0.414-2.527-1.553-2.527
	c-1.144,0-1.572,1.124-1.572,2.542c0,1.411,0.414,2.527,1.559,2.527C20.512,20.014,20.939,18.89,20.939,17.472 M16.48,17.486
	c0,1.108-0.196,1.671-0.66,1.671c-0.477,0-0.681-0.576-0.681-1.685s0.197-1.671,0.667-1.671
	C16.277,15.801,16.48,16.377,16.48,17.486 M17.372,17.472c0-1.411-0.414-2.527-1.552-2.527c-1.144,0-1.573,1.124-1.573,2.542
	c0,1.411,0.415,2.527,1.559,2.527C16.944,20.014,17.372,18.89,17.372,17.472 M12.983,18.469c0,0.414-0.259,0.737-0.695,0.737
	c-0.435,0-0.695-0.323-0.695-0.737c0-0.441,0.253-0.729,0.695-0.729C12.731,17.739,12.983,18.027,12.983,18.469 M12.836,16.341
	c0,0.33-0.19,0.604-0.548,0.604c-0.358,0-0.547-0.274-0.547-0.604c0-0.33,0.14-0.602,0.547-0.602
	C12.696,15.738,12.836,16.011,12.836,16.341 M13.826,18.469c0-0.646-0.323-1.011-0.702-1.187c0.295-0.161,0.512-0.491,0.512-0.934
	c0-0.814-0.463-1.403-1.348-1.403c-0.884,0-1.348,0.59-1.348,1.403c0,0.443,0.232,0.787,0.513,0.934
	c-0.38,0.176-0.703,0.541-0.703,1.187c0,0.878,0.506,1.545,1.538,1.545S13.826,19.347,13.826,18.469"/>
</svg>
