<?xml version="1.0" encoding="iso-8859-1"?>
<!-- Generator: Adobe Illustrator 23.0.2, SVG Export Plug-In . SVG Version: 6.00 Build 0)  -->
<svg version="1.1" id="Layer_1" xmlns="http://www.w3.org/2000/svg" xmlns:xlink="http://www.w3.org/1999/xlink" x="0px" y="0px"
	 viewBox="0 0 31.6 31.6" style="enable-background:new 0 0 31.6 31.6;" xml:space="preserve">
<path style="fill:#5F6062;" d="M15.8,30.6C7.639,30.6,1,23.96,1,15.8C1,7.639,7.639,1,15.8,1c8.161,0,14.8,6.639,14.8,14.8
	C30.6,23.96,23.961,30.6,15.8,30.6 M15.8,0C7.088,0,0,7.088,0,15.8c0,8.712,7.088,15.8,15.8,15.8c8.712,0,15.8-7.088,15.8-15.8
	C31.6,7.088,24.512,0,15.8,0"/>
<path style="fill:#5F6062;" d="M11.939,10.015h2.199c0.277,0,0.5-0.224,0.5-0.5s-0.223-0.5-0.5-0.5h-2.199
	c-0.276,0-0.5,0.224-0.5,0.5S11.663,10.015,11.939,10.015"/>
<path style="fill:#5F6062;" d="M17.367,10.015h2.198c0.277,0,0.5-0.224,0.5-0.5s-0.223-0.5-0.5-0.5h-2.198
	c-0.276,0-0.5,0.224-0.5,0.5S17.091,10.015,17.367,10.015"/>
<path style="fill:#5F6062;" d="M24.62,9.015h-1.322l0.679-0.679c0.244-0.244,0.244-0.641,0-0.885c-0.244-0.243-0.64-0.243-0.884,0
	l-1.105,1.105c-0.117,0.118-0.183,0.277-0.183,0.442v15.187H9.677V8.999c0-0.165-0.066-0.324-0.183-0.442L8.274,7.339
	c-0.244-0.244-0.639-0.244-0.883,0c-0.245,0.244-0.245,0.639,0,0.884l0.792,0.792H6.796c-0.277,0-0.5,0.224-0.5,0.5
	s0.223,0.5,0.5,0.5h1.631v14.797c0,0.345,0.28,0.625,0.625,0.625H22.43c0.345,0,0.625-0.28,0.625-0.625V10.015h1.565
	c0.276,0,0.5-0.224,0.5-0.5S24.896,9.015,24.62,9.015"/>
<path style="fill:#5F6062;" d="M19.812,17.486c0,1.108-0.195,1.671-0.66,1.671c-0.477,0-0.681-0.576-0.681-1.685
	s0.197-1.671,0.667-1.671C19.608,15.801,19.812,16.377,19.812,17.486 M20.704,17.472c0-1.411-0.414-2.527-1.553-2.527
	c-1.144,0-1.572,1.124-1.572,2.542c0,1.411,0.414,2.527,1.559,2.527C20.276,20.014,20.704,18.89,20.704,17.472 M17.157,18.279
	c0-1.019-0.547-1.517-1.264-1.517c-0.323,0-0.519,0.07-0.695,0.183l0.063-1.074h1.644v-0.85h-2.422l-0.12,2.514l0.717,0.337
	c0.182-0.175,0.386-0.274,0.618-0.274c0.358,0,0.575,0.239,0.575,0.731c0,0.498-0.231,0.821-0.737,0.821
	c-0.337,0-0.569-0.084-0.906-0.337l-0.491,0.667c0.351,0.329,0.856,0.533,1.355,0.533C16.547,20.014,17.157,19.382,17.157,18.279
	 M13.043,18.469c0,0.414-0.259,0.737-0.695,0.737c-0.435,0-0.695-0.323-0.695-0.737c0-0.441,0.253-0.729,0.695-0.729
	C12.79,17.739,13.043,18.027,13.043,18.469 M12.896,16.341c0,0.33-0.19,0.604-0.548,0.604c-0.358,0-0.547-0.274-0.547-0.604
	c0-0.33,0.14-0.602,0.547-0.602C12.755,15.738,12.896,16.011,12.896,16.341 M13.886,18.469c0-0.646-0.323-1.011-0.702-1.187
	c0.295-0.161,0.512-0.491,0.512-0.934c0-0.814-0.463-1.403-1.348-1.403c-0.885,0-1.348,0.59-1.348,1.403
	c0,0.443,0.232,0.787,0.513,0.934c-0.38,0.176-0.703,0.541-0.703,1.187c0,0.878,0.506,1.545,1.538,1.545
	C13.38,20.014,13.886,19.347,13.886,18.469"/>
</svg>
