<?xml version="1.0" encoding="iso-8859-1"?>
<!-- Generator: Adobe Illustrator 23.0.2, SVG Export Plug-In . SVG Version: 6.00 Build 0)  -->
<svg version="1.1" id="Layer_1" xmlns="http://www.w3.org/2000/svg" xmlns:xlink="http://www.w3.org/1999/xlink" x="0px" y="0px"
	 viewBox="0 0 31.601 31.6" style="enable-background:new 0 0 31.601 31.6;" xml:space="preserve">
<path style="fill:#5F6062;" d="M15.8,30.6C7.64,30.6,1,23.96,1,15.8C1,7.639,7.64,1,15.8,1c8.161,0,14.801,6.639,14.801,14.8
	C30.601,23.96,23.96,30.6,15.8,30.6 M15.8,0C7.088,0,0,7.088,0,15.8c0,8.712,7.088,15.8,15.8,15.8c8.713,0,15.801-7.088,15.801-15.8
	C31.601,7.088,24.513,0,15.8,0"/>
<polygon style="fill:#5F6062;" points="12.505,25.075 12.505,17.725 11.403,17.725 11.403,20.696 8.022,20.696 8.022,17.725 
	6.919,17.725 6.919,25.075 8.022,25.075 8.022,21.799 11.403,21.799 11.403,25.075 "/>
<path style="fill:#5F6062;" d="M18.078,26.237v-0.911h-3.315c0.143-0.599,0.481-1.001,1.68-1.707
	c1.098-0.651,1.573-1.062,1.573-2.027c0-1.153-0.832-1.707-2.126-1.707c-0.778,0-1.573,0.321-2.137,0.849l0.6,0.715
	c0.401-0.385,0.982-0.626,1.51-0.626c0.858,0,1.197,0.322,1.197,0.822c0,0.438-0.213,0.715-1.063,1.215
	c-1.232,0.733-2.341,1.546-2.404,3.378H18.078z"/>
<path style="fill:#5F6062;" d="M24.289,21.377c0,1.698-0.844,2.733-2.029,2.733c-1.193,0-2.059-1.058-2.059-2.754
	c0-1.697,0.832-2.733,2.018-2.733C23.414,18.623,24.289,19.681,24.289,21.377 M25.431,21.356c0-2.327-1.281-3.843-3.182-3.843
	c-1.889,0-3.191,1.536-3.191,3.863c0,2.328,1.281,3.845,3.17,3.845C24.128,25.222,25.431,23.684,25.431,21.356"/>
<path style="fill:#5F6062;" d="M15.644,17.25c1.436,0,2.6-1.165,2.6-2.602c0-2.678-1.911-6.579-2.6-10.604
	c-0.713,4.025-2.602,7.927-2.602,10.604C13.042,16.085,14.206,17.25,15.644,17.25"/>
<path style="fill:#5F6062;" d="M10.98,11.872c0.765,0,1.385-0.62,1.385-1.385c0-1.426-1.017-3.503-1.385-5.647
	c-0.38,2.145-1.385,4.222-1.385,5.647C9.596,11.252,10.216,11.872,10.98,11.872"/>
<path style="fill:#5F6062;" d="M20.191,11.872c0.764,0,1.385-0.62,1.385-1.385c0-1.426-1.018-3.503-1.385-5.647
	c-0.381,2.145-1.385,4.222-1.385,5.647C18.806,11.252,19.425,11.872,20.191,11.872"/>
</svg>
