<?xml version="1.0" encoding="iso-8859-1"?>
<!-- Generator: Adobe Illustrator 23.0.2, SVG Export Plug-In . SVG Version: 6.00 Build 0)  -->
<svg version="1.1" id="Layer_1" xmlns="http://www.w3.org/2000/svg" xmlns:xlink="http://www.w3.org/1999/xlink" x="0px" y="0px"
	 viewBox="0 0 31.6 31.6" style="enable-background:new 0 0 31.6 31.6;" xml:space="preserve">
<path style="fill:#5F6062;" d="M15.8,30.6C7.639,30.6,1,23.96,1,15.8C1,7.639,7.639,1,15.8,1c8.16,0,14.8,6.639,14.8,14.8
	C30.6,23.96,23.96,30.6,15.8,30.6 M15.8,0C7.088,0,0,7.088,0,15.8c0,8.712,7.088,15.8,15.8,15.8c8.712,0,15.8-7.088,15.8-15.8
	C31.6,7.088,24.512,0,15.8,0"/>
<path style="fill:#5F6062;" d="M22.221,23.703c0,1.336-1.086,2.421-2.42,2.421h-8.002c-1.334,0-2.42-1.085-2.42-2.421V7.895
	c0-1.335,1.086-2.42,2.42-2.42h8.002c1.334,0,2.42,1.085,2.42,2.42V23.703z M19.801,4.475h-8.002c-1.886,0-3.42,1.534-3.42,3.42
	v15.809c0,1.887,1.534,3.421,3.42,3.421h8.002c1.886,0,3.42-1.534,3.42-3.421V7.895C23.221,6.009,21.687,4.475,19.801,4.475"/>
<path style="fill:#5F6062;" d="M18,23.959h-4.5c-1.013,0-1.836-0.823-1.836-1.836v-1.071h8.173v1.071
	C19.837,23.136,19.013,23.959,18,23.959 M19.837,20.052h-8.173v-8.331h8.173V20.052z M13.5,7.64H18c1.013,0,1.837,0.824,1.837,1.836
	v1.245h-8.173V9.476C11.664,8.464,12.487,7.64,13.5,7.64 M18,6.64h-4.5c-1.565,0-2.836,1.271-2.836,2.836v12.647
	c0,1.564,1.271,2.836,2.836,2.836H18c1.564,0,2.837-1.272,2.837-2.836V9.476C20.837,7.911,19.564,6.64,18,6.64"/>
</svg>
