<?xml version="1.0" encoding="iso-8859-1"?>
<!-- Generator: Adobe Illustrator 23.0.2, SVG Export Plug-In . SVG Version: 6.00 Build 0)  -->
<svg version="1.1" id="Layer_1" xmlns="http://www.w3.org/2000/svg" xmlns:xlink="http://www.w3.org/1999/xlink" x="0px" y="0px"
	 viewBox="0 0 31.6 31.6" style="enable-background:new 0 0 31.6 31.6;" xml:space="preserve">
<path style="fill:#5F6062;" d="M15.8,30.6C7.639,30.6,1,23.96,1,15.8C1,7.639,7.639,1,15.8,1c8.16,0,14.8,6.639,14.8,14.8
	C30.6,23.96,23.96,30.6,15.8,30.6 M15.8,0C7.088,0,0,7.088,0,15.8c0,8.712,7.088,15.8,15.8,15.8c8.712,0,15.8-7.088,15.8-15.8
	C31.6,7.088,24.512,0,15.8,0"/>
<path style="fill:#5F6062;" d="M24.102,7.439H7.728c-0.311,0-0.562,0.252-0.562,0.563c0,0.311,0.252,0.562,0.562,0.562h16.374
	c0.309,0,0.563-0.252,0.563-0.562C24.665,7.691,24.411,7.439,24.102,7.439"/>
<path style="fill:#5F6062;" d="M9.224,23.553l1.291-10.762h10.801l1.309,10.762H9.224z M21.813,11.666H10.017
	c-0.285,0-0.524,0.213-0.559,0.496L8.03,24.048c-0.019,0.16,0.031,0.32,0.137,0.44c0.107,0.12,0.262,0.189,0.422,0.189h14.67
	c0.162,0,0.315-0.069,0.422-0.189c0.106-0.121,0.156-0.281,0.138-0.441l-1.446-11.886C22.337,11.878,22.097,11.666,21.813,11.666"/>
<path style="fill:#5F6062;" d="M17.532,10.691c0.311,0,0.562-0.252,0.562-0.562c0-0.311-0.252-0.562-0.562-0.562h-3.234
	c-0.311,0-0.562,0.252-0.562,0.562c0,0.311,0.252,0.562,0.562,0.562H17.532z"/>
<path style="fill:#5F6062;" d="M17.122,16.19l-1.563,1.561c-0.194,0.195-0.194,0.512,0,0.707c0.099,0.098,0.227,0.146,0.354,0.146
	c0.128,0,0.255-0.049,0.352-0.146l1.562-1.562c0.195-0.195,0.195-0.512,0-0.707C17.634,15.994,17.317,15.994,17.122,16.19"/>
<path style="fill:#5F6062;" d="M15.872,21.488c-1.843,0-3.342-1.5-3.342-3.342c0-1.843,1.499-3.342,3.342-3.342
	c1.844,0,3.342,1.499,3.342,3.342C19.214,19.988,17.716,21.488,15.872,21.488 M15.872,13.805c-2.395,0-4.342,1.947-4.342,4.342
	s1.947,4.342,4.342,4.342c2.394,0,4.342-1.947,4.342-4.342S18.267,13.805,15.872,13.805"/>
</svg>
