<?xml version="1.0" encoding="iso-8859-1"?>
<!-- Generator: Adobe Illustrator 23.0.2, SVG Export Plug-In . SVG Version: 6.00 Build 0)  -->
<svg version="1.1" id="Layer_1" xmlns="http://www.w3.org/2000/svg" xmlns:xlink="http://www.w3.org/1999/xlink" x="0px" y="0px"
	 viewBox="0 0 31.602 31.602" style="enable-background:new 0 0 31.602 31.602;" xml:space="preserve">
<path style="fill:none;" d="M31.602,15.801c0,8.726-7.073,15.801-15.8,15.801C7.075,31.602,0,24.527,0,15.801
	C0,7.075,7.075,0,15.802,0C24.528,0,31.602,7.075,31.602,15.801z"/>
<path style="fill:#5F6062;" d="M15.801,30.6c-8.161,0-14.8-6.64-14.8-14.8C1.001,7.639,7.64,1,15.801,1c8.16,0,14.8,6.639,14.8,14.8
	C30.601,23.96,23.961,30.6,15.801,30.6 M15.801,0c-8.712,0-15.8,7.088-15.8,15.8c0,8.712,7.088,15.8,15.8,15.8
	c8.712,0,15.8-7.088,15.8-15.8C31.601,7.088,24.513,0,15.801,0"/>
<path style="fill:#5F6062;" d="M27.045,15.251h-5.838c0.01-0.043,0.025-0.083,0.025-0.128V8.177l1.733,1.732
	c0.121,0.122,0.281,0.183,0.441,0.183c0.16,0,0.32-0.061,0.442-0.183c0.244-0.244,0.244-0.641,0-0.884l-2.797-2.798
	c-0.244-0.243-0.64-0.243-0.884,0l-2.797,2.798c-0.244,0.243-0.244,0.64,0,0.884c0.244,0.244,0.64,0.244,0.883,0l1.729-1.729v6.942
	c0,0.045,0.018,0.085,0.026,0.128h-8.645c0.01-0.043,0.026-0.083,0.026-0.128V8.177l1.731,1.732
	c0.121,0.122,0.281,0.183,0.441,0.183c0.16,0,0.32-0.061,0.441-0.183c0.244-0.244,0.244-0.641,0-0.884l-2.797-2.798
	c-0.244-0.243-0.64-0.243-0.883,0L7.526,9.025c-0.243,0.243-0.243,0.64,0,0.884c0.244,0.244,0.641,0.244,0.885,0L10.14,8.18v6.943
	c0,0.045,0.017,0.085,0.026,0.128H4.562c-0.31,0-0.562,0.252-0.562,0.563c0,0.31,0.252,0.561,0.562,0.561h22.482
	c0.311,0,0.562-0.252,0.562-0.561C27.607,15.503,27.355,15.251,27.045,15.251"/>
<path style="fill:#5F6062;" d="M13.859,25.458c0,1.01,0.818,1.827,1.828,1.827c1.01,0,1.828-0.817,1.828-1.827
	c0-1.883-1.344-4.624-1.828-7.453C15.186,20.834,13.859,23.575,13.859,25.458"/>
<path style="fill:#5F6062;" d="M8.814,23.836c0,0.757,0.614,1.371,1.371,1.371c0.758,0,1.371-0.614,1.371-1.371
	c0-1.412-1.007-3.468-1.371-5.59C9.81,20.368,8.814,22.424,8.814,23.836"/>
<path style="fill:#5F6062;" d="M19.812,23.836c0,0.757,0.614,1.371,1.371,1.371s1.371-0.614,1.371-1.371
	c0-1.412-1.007-3.468-1.371-5.59C20.808,20.368,19.812,22.424,19.812,23.836"/>
</svg>
