<?xml version="1.0" encoding="iso-8859-1"?>
<!-- Generator: Adobe Illustrator 23.0.2, SVG Export Plug-In . SVG Version: 6.00 Build 0)  -->
<svg version="1.1" id="Layer_1" xmlns="http://www.w3.org/2000/svg" xmlns:xlink="http://www.w3.org/1999/xlink" x="0px" y="0px"
	 viewBox="0 0 31.6 31.6" style="enable-background:new 0 0 31.6 31.6;" xml:space="preserve">
<path style="fill:#5F6062;" d="M15.8,30.6C7.639,30.6,1,23.96,1,15.8C1,7.639,7.639,1,15.8,1c8.16,0,14.8,6.639,14.8,14.8
	C30.6,23.96,23.96,30.6,15.8,30.6 M15.8,0C7.088,0,0,7.088,0,15.8c0,8.712,7.088,15.8,15.8,15.8c8.712,0,15.8-7.088,15.8-15.8
	C31.6,7.088,24.512,0,15.8,0"/>
<path style="fill:#5F6062;" d="M20.109,11.004h-8.658c-0.064-0.548-0.103-0.935-0.103-1.081c-0.012-1.646,0.57-3.181,1.598-4.215
	c0.781-0.787,1.729-1.203,2.779-1.203c2.447,0.021,4.454,2.496,4.475,5.516C20.201,10.163,20.168,10.51,20.109,11.004
	 M18.031,25.203c-0.33,1.839-0.555,1.845-1.625,1.845h-0.012l-0.693-0.003c-1.701-0.001-1.918-0.001-2.262-1.877
	c-0.169-0.927-1.338-9.004-1.851-13.039h8.379C19.443,16.12,18.197,24.28,18.031,25.203 M15.689,3.38
	c-1.302,0-2.559,0.545-3.543,1.535C10.91,6.16,10.209,7.988,10.223,9.93c0.007,1.237,1.967,14.655,2.109,15.44
	c0.49,2.68,1.439,2.799,3.439,2.8l0.623,0.003h0.001c1.657,0,2.321-0.418,2.743-2.771c0.2-1.11,2.193-14.153,2.185-15.389
	C21.3,6.382,18.791,3.407,15.689,3.38"/>
<path style="fill:#5F6062;" d="M15.688,6.045c-1.106,0-2.002,0.895-2.002,2.002c0,1.105,0.896,2.002,2.002,2.002
	c1.106,0,2.003-0.896,2.003-2.002C17.69,6.939,16.794,6.045,15.688,6.045"/>
</svg>
