<?xml version="1.0" encoding="iso-8859-1"?>
<!-- Generator: Adobe Illustrator 23.0.2, SVG Export Plug-In . SVG Version: 6.00 Build 0)  -->
<svg version="1.1" id="Layer_1" xmlns="http://www.w3.org/2000/svg" xmlns:xlink="http://www.w3.org/1999/xlink" x="0px" y="0px"
	 viewBox="0 0 31.602 31.602" style="enable-background:new 0 0 31.602 31.602;" xml:space="preserve">
<path style="fill:none;" d="M31.602,15.801c0,8.726-7.073,15.801-15.8,15.801C7.075,31.602,0,24.527,0,15.801
	C0,7.075,7.075,0,15.802,0C24.528,0,31.602,7.075,31.602,15.801z"/>
<path style="fill:#5F6062;" d="M15.801,30.6c-8.161,0-14.8-6.64-14.8-14.8C1.001,7.639,7.64,1,15.801,1c8.16,0,14.8,6.639,14.8,14.8
	C30.601,23.96,23.961,30.6,15.801,30.6 M15.801,0c-8.712,0-15.8,7.088-15.8,15.8c0,8.712,7.088,15.8,15.8,15.8
	c8.712,0,15.8-7.088,15.8-15.8C31.601,7.088,24.513,0,15.801,0"/>
<path style="fill:#5F6062;" d="M10.111,11.4c-0.171-0.299-0.551-0.402-0.852-0.233c-0.299,0.169-0.405,0.551-0.236,0.852
	c0.017,0.028,1.592,2.887,0.011,5.49c-1.966,3.234-0.096,6.727-0.015,6.874c0.113,0.208,0.327,0.325,0.548,0.325
	c0.101,0,0.204-0.025,0.3-0.077c0.301-0.164,0.414-0.545,0.25-0.847c-0.017-0.03-1.601-3.017-0.016-5.627
	C12.07,14.915,10.191,11.542,10.111,11.4"/>
<path style="fill:#5F6062;" d="M16.373,11.4c-0.171-0.299-0.55-0.402-0.851-0.233c-0.3,0.169-0.405,0.551-0.236,0.852
	c0.017,0.028,1.591,2.887,0.011,5.49c-1.966,3.234-0.096,6.727-0.015,6.875c0.113,0.207,0.327,0.324,0.548,0.324
	c0.102,0,0.204-0.025,0.299-0.077c0.303-0.164,0.414-0.545,0.25-0.847c-0.016-0.03-1.6-3.017-0.015-5.627
	C18.332,14.915,16.454,11.542,16.373,11.4"/>
<path style="fill:#5F6062;" d="M22.561,11.4c-0.171-0.299-0.55-0.402-0.851-0.233c-0.3,0.169-0.405,0.551-0.236,0.852
	c0.017,0.028,1.591,2.887,0.011,5.49c-1.966,3.234-0.096,6.727-0.015,6.875c0.113,0.207,0.327,0.324,0.548,0.324
	c0.102,0,0.204-0.025,0.299-0.077c0.303-0.164,0.414-0.545,0.25-0.847c-0.016-0.03-1.6-3.017-0.015-5.627
	C24.52,14.915,22.642,11.542,22.561,11.4"/>
<path style="fill:#5F6062;" d="M25.478,8.585c-0.16-0.073-3.989-1.778-9.714-1.778s-9.54,1.706-9.7,1.778
	C5.75,8.728,5.611,9.098,5.754,9.413c0.142,0.312,0.513,0.451,0.827,0.311c0.036-0.017,3.746-1.667,9.183-1.667
	c5.437,0,9.162,1.65,9.199,1.667c0.082,0.037,0.17,0.056,0.256,0.056c0.237,0,0.465-0.137,0.569-0.367
	C25.93,9.097,25.791,8.727,25.478,8.585"/>
</svg>
