<?xml version="1.0" encoding="iso-8859-1"?>
<!-- Generator: Adobe Illustrator 23.0.2, SVG Export Plug-In . SVG Version: 6.00 Build 0)  -->
<svg version="1.1" id="Layer_1" xmlns="http://www.w3.org/2000/svg" xmlns:xlink="http://www.w3.org/1999/xlink" x="0px" y="0px"
	 viewBox="0 0 31.602 31.602" style="enable-background:new 0 0 31.602 31.602;" xml:space="preserve">
<path style="fill:none;" d="M31.602,15.801c0,8.726-7.073,15.801-15.8,15.801C7.075,31.602,0,24.527,0,15.801
	C0,7.075,7.075,0,15.802,0C24.528,0,31.602,7.075,31.602,15.801z"/>
<path style="fill:#5F6062;" d="M15.802,30.6c-8.162,0-14.801-6.64-14.801-14.8C1.001,7.639,7.64,1,15.802,1
	c8.159,0,14.799,6.639,14.799,14.8C30.601,23.96,23.961,30.6,15.802,30.6 M15.802,0C7.089,0,0.001,7.088,0.001,15.8
	c0,8.712,7.088,15.8,15.801,15.8c8.711,0,15.799-7.088,15.799-15.8C31.601,7.088,24.513,0,15.802,0"/>
<path style="fill:#5F6062;" d="M12.665,8.504c-0.312,0-0.564,0.252-0.564,0.562v2.339l-1.32-1.319c-0.22-0.221-0.576-0.221-0.796,0
	c-0.219,0.219-0.219,0.575,0,0.795l1.318,1.318H8.968c-0.31,0-0.562,0.252-0.562,0.564c0,0.31,0.252,0.561,0.562,0.561h3.697
	c0.017,0,0.029-0.007,0.045-0.009c0.058-0.005,0.114-0.012,0.168-0.034c0.205-0.084,0.35-0.284,0.35-0.519V9.066
	C13.228,8.756,12.976,8.504,12.665,8.504"/>
<path style="fill:#5F6062;" d="M8.907,9.57c0.144,0,0.288-0.056,0.397-0.164c0.22-0.221,0.221-0.577,0.001-0.796L7.686,6.991
	C7.467,6.771,7.109,6.771,6.891,6.99c-0.22,0.22-0.22,0.577-0.001,0.796l1.619,1.619C8.619,9.515,8.763,9.57,8.907,9.57"/>
<path style="fill:#5F6062;" d="M24.19,23.144c0,1.157-1.029,1.233-1.24,1.236h-7c-1.16,0-1.234-1.033-1.238-1.236v-6.682
	c0-1.16,1.035-1.233,1.238-1.236h7.002c1.161,0,1.235,1.033,1.238,1.236V23.144z M17.773,13.026c0-0.099,0-0.326,0.337-0.338H20.8
	c0.097,0,0.324,0,0.337,0.338v1.074h-3.363V13.026z M22.952,14.101h-0.691v-1.074c0-0.588-0.39-1.463-1.462-1.463H18.11
	c-0.588,0-1.462,0.389-1.462,1.463v1.074H15.95c-0.949,0-2.363,0.629-2.363,2.361v6.682c0,0.948,0.629,2.361,2.363,2.361h7.002
	c0.95,0,2.363-0.629,2.363-2.361v-6.682C25.315,15.514,24.686,14.101,22.952,14.101"/>
</svg>
