<?xml version="1.0" encoding="iso-8859-1"?>
<!-- Generator: Adobe Illustrator 23.0.2, SVG Export Plug-In . SVG Version: 6.00 Build 0)  -->
<svg version="1.1" id="Layer_1" xmlns="http://www.w3.org/2000/svg" xmlns:xlink="http://www.w3.org/1999/xlink" x="0px" y="0px"
	 viewBox="0 0 31.6 31.6" style="enable-background:new 0 0 31.6 31.6;" xml:space="preserve">
<path style="fill:#5F6062;" d="M15.8,30.6C7.639,30.6,1,23.96,1,15.8C1,7.639,7.639,1,15.8,1c8.16,0,14.8,6.639,14.8,14.8
	C30.6,23.96,23.96,30.6,15.8,30.6 M15.8,0C7.088,0,0,7.088,0,15.8c0,8.712,7.088,15.8,15.8,15.8c8.712,0,15.8-7.088,15.8-15.8
	C31.6,7.088,24.512,0,15.8,0"/>
<path style="fill:#5F6062;" d="M15.708,16.937c-0.828,0-1.5,0.672-1.5,1.5c0,0.629,0.388,1.166,0.936,1.389v2.958
	c0,0.311,0.252,0.562,0.564,0.562c0.311,0,0.562-0.252,0.562-0.562v-2.958c0.549-0.223,0.938-0.76,0.938-1.389
	C17.208,17.608,16.536,16.937,15.708,16.937"/>
<path style="fill:#5F6062;" d="M15.735,26.025l-7.178-3.363v-7.755h14.354v7.755L15.735,26.025z M22.911,13.782H8.558v-2.574h14.354
	V13.782z M15.702,5.543c2.147,0,3.89,2.024,3.961,4.54h-7.922C11.811,7.567,13.556,5.543,15.702,5.543 M23.475,10.083h-2.681
	c-0.073-3.137-2.326-5.665-5.092-5.665c-2.767,0-5.021,2.528-5.094,5.665H7.996c-0.312,0-0.563,0.252-0.563,0.563v12.372
	c0,0.219,0.127,0.418,0.324,0.511l7.74,3.627c0.074,0.035,0.156,0.053,0.238,0.053c0.082,0,0.162-0.018,0.238-0.053l7.74-3.627
	c0.197-0.093,0.324-0.292,0.324-0.511V10.646C24.038,10.335,23.786,10.083,23.475,10.083"/>
</svg>
