<?xml version="1.0" encoding="iso-8859-1"?>
<!-- Generator: Adobe Illustrator 23.0.2, SVG Export Plug-In . SVG Version: 6.00 Build 0)  -->
<svg version="1.1" id="Layer_1" xmlns="http://www.w3.org/2000/svg" xmlns:xlink="http://www.w3.org/1999/xlink" x="0px" y="0px"
	 viewBox="0 0 31.603 31.602" style="enable-background:new 0 0 31.603 31.602;" xml:space="preserve">
<g>
	<path style="fill:#5E5F61;" d="M15.801,30.603C7.641,30.603,1,23.963,1,15.801C1,7.64,7.641,1,15.801,1
		c8.162,0,14.802,6.64,14.802,14.801C30.603,23.963,23.963,30.603,15.801,30.603 M15.801,0C7.087,0,0,7.088,0,15.801
		c0,8.712,7.087,15.801,15.801,15.801c8.713,0,15.802-7.089,15.802-15.801C31.603,7.088,24.514,0,15.801,0"/>
	<path style="fill:#5E5F61;" d="M12.978,24.843h-2.566L25.477,9.779c0.226-0.227,0.226-0.594,0-0.821
		c-0.226-0.227-0.593-0.227-0.819,0L9.602,24.014v-2.547c0-0.32-0.261-0.581-0.581-0.581c-0.32,0-0.579,0.261-0.579,0.581v3.957
		c0,0.321,0.259,0.582,0.579,0.582h3.957c0.321,0,0.581-0.261,0.581-0.582C13.559,25.103,13.299,24.843,12.978,24.843"/>
	<path style="fill:#5E5F61;" d="M27.114,12.154c-0.229-0.227-0.597-0.227-0.82,0L15.459,22.987c-0.227,0.226-0.227,0.594,0,0.82
		c0.113,0.113,0.261,0.17,0.41,0.17c0.148,0,0.297-0.057,0.41-0.17l10.835-10.833C27.337,12.748,27.337,12.381,27.114,12.154"/>
	<path style="fill:#5E5F61;" d="M10.183,17.579c1.589-1.587,2.768-5.034,4.746-7.829c-2.809,1.964-6.242,3.157-7.83,4.745
		c-0.851,0.851-0.851,2.232,0,3.084C7.951,18.433,9.331,18.433,10.183,17.579"/>
	<path style="fill:#5E5F61;" d="M10.659,10.133c0.845-0.845,1.474-2.681,2.527-4.169C11.69,7.009,9.862,7.645,9.019,8.491
		c-0.456,0.454-0.456,1.188,0,1.643C9.472,10.586,10.206,10.586,10.659,10.133"/>
	<path style="fill:#5E5F61;" d="M14.477,15.593c0.453,0.454,1.19,0.454,1.644,0c0.844-0.846,1.474-2.68,2.524-4.168
		c-1.494,1.045-3.322,1.681-4.168,2.526C14.024,14.405,14.024,15.14,14.477,15.593"/>
	<path style="fill:#5E5F61;" d="M16.086,8.918c0.454,0.453,1.19,0.453,1.642,0c0.844-0.846,1.475-2.68,2.524-4.169
		c-1.492,1.045-3.321,1.681-4.167,2.526C15.633,7.729,15.633,8.464,16.086,8.918"/>
</g>
</svg>
