<?xml version="1.0" encoding="iso-8859-1"?>
<!-- Generator: Adobe Illustrator 23.0.2, SVG Export Plug-In . SVG Version: 6.00 Build 0)  -->
<svg version="1.1" id="Layer_1" xmlns="http://www.w3.org/2000/svg" xmlns:xlink="http://www.w3.org/1999/xlink" x="0px" y="0px"
	 viewBox="0 0 31.602 31.602" style="enable-background:new 0 0 31.602 31.602;" xml:space="preserve">
<path style="fill:none;" d="M31.602,15.801c0,8.726-7.073,15.801-15.8,15.801C7.075,31.602,0,24.527,0,15.801
	C0,7.075,7.075,0,15.802,0C24.528,0,31.602,7.075,31.602,15.801z"/>
<path style="fill:#5F6062;" d="M15.801,30.6c-8.161,0-14.8-6.64-14.8-14.8C1.001,7.639,7.64,1,15.801,1
	c8.161,0,14.8,6.639,14.8,14.8C30.601,23.96,23.962,30.6,15.801,30.6 M15.801,0c-8.712,0-15.8,7.088-15.8,15.8
	c0,8.712,7.088,15.8,15.8,15.8c8.712,0,15.8-7.088,15.8-15.8C31.601,7.088,24.513,0,15.801,0"/>
<path style="fill:#5F6062;" d="M8,15.19H6.053l1.732-1.732c0.244-0.243,0.244-0.64,0-0.884c-0.244-0.244-0.64-0.244-0.885,0
	l-2.797,2.797c-0.243,0.244-0.243,0.641,0,0.885L6.9,19.053c0.122,0.122,0.282,0.183,0.442,0.183c0.16,0,0.32-0.061,0.442-0.183
	c0.244-0.244,0.244-0.641,0-0.885L6.057,16.44H8c0.345,0,0.625-0.28,0.625-0.625C8.625,15.471,8.345,15.19,8,15.19"/>
<path style="fill:#5F6062;" d="M12.678,15.19h-2.449c-0.346,0-0.625,0.28-0.625,0.625c0,0.345,0.279,0.625,0.625,0.625h2.449
	c0.346,0,0.625-0.28,0.625-0.625C13.303,15.471,13.023,15.19,12.678,15.19"/>
<path style="fill:#5F6062;" d="M17.193,15.19h-2.45c-0.345,0-0.625,0.28-0.625,0.625c0,0.345,0.28,0.625,0.625,0.625h2.45
	c0.345,0,0.625-0.28,0.625-0.625C17.818,15.471,17.538,15.19,17.193,15.19"/>
<path style="fill:#5F6062;" d="M27.967,16.053c0.063-0.153,0.063-0.327-0.001-0.48c-0.002-0.004-0.007-0.007-0.009-0.011
	c-0.029-0.068-0.069-0.134-0.126-0.189l-2.797-2.798c-0.244-0.243-0.639-0.243-0.883,0c-0.244,0.244-0.244,0.641,0,0.885
	l1.732,1.731h-1.945c-0.345,0-0.625,0.28-0.625,0.625c0,0.345,0.28,0.625,0.625,0.625h1.941l-1.729,1.728
	c-0.244,0.244-0.244,0.641,0,0.885c0.122,0.122,0.281,0.183,0.441,0.183c0.161,0,0.319-0.061,0.441-0.183l2.794-2.794
	C27.888,16.199,27.935,16.131,27.967,16.053"/>
<path style="fill:#5F6062;" d="M21.705,15.19h-2.45c-0.345,0-0.625,0.28-0.625,0.625c0,0.345,0.28,0.625,0.625,0.625h2.45
	c0.345,0,0.625-0.28,0.625-0.625C22.33,15.471,22.05,15.19,21.705,15.19"/>
</svg>
