<?xml version="1.0" encoding="iso-8859-1"?>
<!-- Generator: Adobe Illustrator 23.1.1, SVG Export Plug-In . SVG Version: 6.00 Build 0)  -->
<svg version="1.1" id="Layer_1" xmlns="http://www.w3.org/2000/svg" xmlns:xlink="http://www.w3.org/1999/xlink" x="0px" y="0px"
	 viewBox="0 0 31.602 31.602" style="enable-background:new 0 0 31.602 31.602;" xml:space="preserve">
<path style="fill:#5F6062;" d="M15.778,30.669c-8.161,0-14.8-6.641-14.8-14.801c0-8.161,6.639-14.8,14.8-14.8
	c8.159,0,14.8,6.639,14.8,14.8C30.578,24.029,23.937,30.669,15.778,30.669 M15.778,0.069c-8.712,0-15.8,7.088-15.8,15.8
	c0,8.712,7.088,15.801,15.8,15.801c8.712,0,15.8-7.088,15.8-15.801C31.578,7.157,24.49,0.069,15.778,0.069"/>
<path style="fill:#5F6062;" d="M27.76,12.64c-1.003-0.173-2.113,0.449-3.349,1.34c-0.113-0.116-0.226-0.229-0.341-0.343
	c0.353-1.454,0.024-3.362-0.469-5.064c0.473-0.089,0.936-0.215,1.383-0.394c0.279-0.112,0.415-0.429,0.303-0.708
	c-0.112-0.28-0.428-0.414-0.707-0.303c-0.419,0.168-0.861,0.271-1.311,0.348c-0.097-0.286-0.195-0.563-0.291-0.821
	c0.27-0.044,0.461-0.036,0.485-0.034c0.309,0.011,0.555-0.2,0.577-0.496c0.022-0.296-0.199-0.554-0.495-0.577
	c-0.27-0.02-0.608,0.001-0.972,0.084c-0.224-0.537-0.403-0.924-0.472-1.071c-0.128-0.271-0.451-0.384-0.722-0.257
	c-0.271,0.128-0.386,0.451-0.257,0.722c0.127,0.267,0.279,0.613,0.44,1.003C21.038,6.361,20.54,6.82,20.15,7.485
	c-0.873-0.14-1.742-0.368-2.578-0.645c-0.36-0.466-0.759-0.921-1.162-1.344c1.165-0.552,2.475-0.778,3.978-0.498
	c0.282,0.051,0.57-0.137,0.624-0.427c0.055-0.29-0.137-0.569-0.427-0.624c-1.917-0.358-3.553-0.019-4.975,0.745
	c-0.8-0.767-1.479-1.327-1.655-1.47c-0.232-0.188-0.576-0.154-0.766,0.08C13,3.536,13.036,3.879,13.27,4.068
	c0.34,0.276,0.839,0.708,1.38,1.218c-0.098,0.071-0.19,0.153-0.286,0.228c-1.64-0.81-2.748-1.547-2.778-1.566
	c-0.249-0.168-0.588-0.101-0.755,0.147c-0.168,0.25-0.102,0.587,0.148,0.755c0.112,0.076,1.068,0.709,2.491,1.442
	c-1.45,1.401-2.633,3.218-3.648,5.019c-0.039-2.457,0.105-4.838,0.241-6.202c0.03-0.302-0.19-0.57-0.491-0.601
	C9.277,4.488,9.001,4.698,8.971,5c-0.028,0.284-0.415,4.293-0.18,8.206c-0.075,0.143-0.152,0.288-0.226,0.428
	c-2.123-1.485-3.77-2.778-3.804-2.805c-0.235-0.187-0.578-0.147-0.765,0.09c-0.186,0.236-0.146,0.578,0.091,0.764
	c0.141,0.112,1.818,1.428,3.962,2.923c-0.944,1.762-1.878,3.338-2.596,3.37c-0.423,0.036-0.834-0.521-1.128-0.976
	c-0.16-0.247-0.489-0.32-0.739-0.159c-0.248,0.16-0.319,0.491-0.159,0.739c0.638,0.986,1.293,1.466,2.003,1.466
	c0.023,0,0.047,0,0.07-0.002c1.267-0.056,2.237-1.592,3.436-3.828c0.014,0.01,0.028,0.019,0.042,0.029
	c0.031,0.236,0.064,0.47,0.101,0.7c-0.423,0.731-0.734,1.624-0.936,2.694c-0.435,2.297,2.651,8.066,3.004,8.716
	c0.099,0.181,0.285,0.283,0.477,0.283c0.088,0,0.177-0.021,0.259-0.066c0.263-0.143,0.36-0.472,0.218-0.735
	c-0.909-1.672-3.2-6.37-2.892-7.998c0.074-0.39,0.169-0.74,0.274-1.074c0.282,0.966,0.658,1.779,1.16,2.324
	c0.51,0.553,1.118,0.833,1.81,0.833c0.015,0,0.03,0,0.046,0c0.07-0.001,0.139-0.002,0.207-0.002c3.662,0,5.506,1.786,6.434,3.447
	c-1.431,0.749-2.691,1.773-3.165,3.55c-0.077,0.287,0.094,0.582,0.381,0.658c0.047,0.013,0.093,0.019,0.139,0.019
	c0.238,0,0.455-0.159,0.52-0.399c0.371-1.392,1.355-2.216,2.581-2.86c0.372,0.959,0.46,1.723,0.468,1.811
	c0.026,0.284,0.266,0.497,0.545,0.497c0.018,0,0.034,0,0.051-0.002c0.302-0.027,0.523-0.293,0.496-0.595
	c-0.002-0.026-0.105-0.974-0.587-2.171c0.379-0.164,0.767-0.323,1.163-0.482c0.564-0.226,1.145-0.46,1.705-0.728
	c0.125,0.409,0.221,0.834,0.265,1.289c0.027,0.281,0.265,0.492,0.541,0.492c0.018,0,0.036-0.001,0.054-0.003
	c0.299-0.029,0.519-0.295,0.489-0.595c-0.059-0.611-0.184-1.181-0.362-1.715c1.418-0.876,2.492-2.137,2.415-4.354
	c-0.055-1.58-0.767-2.861-1.695-3.982c0.971-0.692,1.837-1.188,2.439-1.086c0.291,0.053,0.576-0.15,0.627-0.447
	C28.257,12.97,28.057,12.689,27.76,12.64z M12.6,14.647c0.502,0.826,1.763,1.482,3.418,2.333c0.571,0.294,1.182,0.608,1.8,0.951
	c-0.69,0.126-1.38,0.107-2.062-0.131c-1.316-0.46-3.017-1.423-4.687-2.488c0.052-0.039,0.094-0.093,0.148-0.128
	C11.632,14.913,12.101,14.745,12.6,14.647z M16.517,16.012c-0.971-0.499-1.954-1.007-2.538-1.462c1.27,0.03,2.645,0.334,3.928,0.626
	c1.623,0.37,3.176,0.712,4.34,0.436c-0.974,0.726-1.99,1.42-3.021,1.873C18.302,16.931,17.369,16.45,16.517,16.012z M23.125,12.738
	c-0.042-0.039-0.086-0.081-0.128-0.12c-1.401-1.297-2.612-2.417-2.345-3.545c0.034-0.144,0.074-0.277,0.118-0.404
	c0.377,0.037,0.754,0.062,1.128,0.062c0.202,0,0.402-0.012,0.602-0.024C22.915,10.1,23.212,11.578,23.125,12.738z M21.957,7.081
	c0.065,0.177,0.13,0.357,0.195,0.543c-0.269,0.007-0.537,0.011-0.81-0.005C21.535,7.388,21.746,7.214,21.957,7.081z M19.707,8.52
	c-0.032,0.105-0.075,0.192-0.102,0.305c-0.412,1.739,1.081,3.12,2.661,4.583c0.184,0.17,0.371,0.344,0.557,0.52
	c-0.019,0.037-0.032,0.08-0.053,0.115c-0.597,0.996-2.463,0.571-4.624,0.078c-1.519-0.346-3.157-0.711-4.685-0.655
	c0.136-0.402,0.687-0.633,1.9-0.997c1.1-0.329,2.347-0.702,3.139-1.656c0.303-0.366,0.431-0.816,0.379-1.338
	c-0.038-0.384-0.187-0.797-0.398-1.22C18.887,8.357,19.295,8.447,19.707,8.52z M14.483,6.79c0.744,0.347,1.57,0.692,2.445,0.994
	c0.48,0.656,0.819,1.286,0.87,1.796c0.029,0.3-0.062,0.45-0.134,0.536c-0.581,0.701-1.614,1.01-2.613,1.309
	c-1.198,0.359-2.648,0.801-2.705,2.16c-0.609,0.125-1.189,0.344-1.721,0.693c-0.185,0.121-0.357,0.258-0.522,0.405
	c-0.032-0.021-0.064-0.042-0.096-0.063c-0.042-0.401-0.075-0.813-0.102-1.23C11.162,11.018,12.602,8.474,14.483,6.79z M21.33,23.395
	c-0.403,0.161-0.815,0.332-1.225,0.511c-1.066-1.948-3.187-4.081-7.399-4.081c-0.075,0-0.152,0-0.229,0.002
	c-0.409-0.003-0.726-0.15-1.029-0.48c-0.578-0.627-0.962-1.771-1.214-3.15c0.02-0.028,0.039-0.057,0.059-0.084
	c1.788,1.148,3.646,2.205,5.105,2.715c0.541,0.19,1.08,0.273,1.613,0.273c0.71,0,1.409-0.16,2.094-0.407
	c1.601,1.017,3.099,2.287,3.936,3.975C22.509,22.923,21.93,23.155,21.33,23.395z M25.762,18.817c0.057,1.64-0.668,2.596-1.767,3.311
	c-0.832-1.662-2.203-2.934-3.705-3.961c1.267-0.661,2.464-1.566,3.541-2.391c0.148-0.113,0.294-0.225,0.44-0.335
	C25.092,16.427,25.716,17.526,25.762,18.817z"/>
</svg>
