<?xml version="1.0" encoding="iso-8859-1"?>
<!-- Generator: Adobe Illustrator 23.0.2, SVG Export Plug-In . SVG Version: 6.00 Build 0)  -->
<svg version="1.1" id="Layer_1" xmlns="http://www.w3.org/2000/svg" xmlns:xlink="http://www.w3.org/1999/xlink" x="0px" y="0px"
	 viewBox="0 0 200 200" style="enable-background:new 0 0 200 200;" xml:space="preserve">
<g>
	<rect y="39.173" style="fill:none;" width="200" height="83.972"/>
	<path style="fill:#53575A;" d="M58.947,64.991v-6.361h15.59v6.361H58.947z"/>
	<path style="fill:#53575A;" d="M95.927,85.321c-5.55,0-10.539-1.31-15.216-4.303l3.18-5.425c3.68,2.058,8.294,3.368,12.223,3.368
		c6.797,0,10.352-3.306,10.352-8.855c0-5.176-3.43-7.795-8.855-7.795c-3.68,0-6.174,1.06-8.419,2.744l-6.985-2.744l1.497-21.328
		h26.816v6.236H89.566l-0.873,11.038c2.432-1.372,5.488-2.245,9.417-2.245c9.979,0,15.029,5.862,15.029,13.782
		C113.139,80.457,106.029,85.321,95.927,85.321z"/>
	<path style="fill:#53575A;" d="M124.812,54.59c-3.852,0-6.87-2.984-6.87-6.905c0-3.817,3.019-6.835,6.87-6.835
		c3.887,0,6.87,3.019,6.87,6.835C131.683,51.606,128.699,54.59,124.812,54.59z M124.812,43.938c-2.082,0-3.747,1.7-3.747,3.748
		c0,2.151,1.665,3.817,3.747,3.817c2.117,0,3.747-1.666,3.747-3.817C128.56,45.638,126.93,43.938,124.812,43.938z"/>
	<path style="fill:#53575A;" d="M134.616,69.367v4.68h5.14v2.634h-5.14v7.954h-2.686V66.733h11.534v2.634H134.616z"/>
</g>
<g>
	<rect y="113.652" style="fill:none;" width="200" height="83.972"/>
	<path style="fill:#53575A;" d="M39.896,139.47v-6.361h15.59v6.361H39.896z"/>
	<path style="fill:#53575A;" d="M58.169,159.114c0.437-12.784,8.169-18.46,16.775-23.573c5.924-3.492,7.421-5.426,7.421-8.481
		c0-3.492-2.37-5.737-8.356-5.737c-3.679,0-7.733,1.684-10.539,4.365l-4.179-4.989c3.929-3.679,9.479-5.924,14.905-5.924
		c9.042,0,14.842,3.866,14.842,11.911c0,6.735-3.305,9.604-10.976,14.156c-8.357,4.927-10.727,7.733-11.724,11.911h23.136v6.361
		H58.169z"/>
	<path style="fill:#53575A;" d="M113.484,159.8c-11.287,0-17.149-9.229-17.149-22.45s5.986-22.575,17.274-22.575
		c11.287,0,17.149,9.229,17.149,22.45S124.772,159.8,113.484,159.8z M113.484,121.135c-7.608,0-10.539,6.923-10.539,16.09
		s3.056,16.215,10.664,16.215c7.671,0,10.539-6.923,10.539-16.09C124.148,128.182,121.155,121.135,113.484,121.135z"/>
	<path style="fill:#53575A;" d="M141.995,129.069c-3.852,0-6.87-2.983-6.87-6.904c0-3.817,3.019-6.836,6.87-6.836
		c3.887,0,6.87,3.019,6.87,6.836C148.865,126.086,145.882,129.069,141.995,129.069z M141.995,118.417
		c-2.082,0-3.747,1.7-3.747,3.748c0,2.151,1.665,3.816,3.747,3.816c2.116,0,3.747-1.665,3.747-3.816
		C145.742,120.117,144.111,118.417,141.995,118.417z"/>
	<path style="fill:#53575A;" d="M155.839,159.396c-4.629,0-7.569-3.811-7.569-9.232s2.94-9.232,7.569-9.232
		c2.916,0,4.859,1.177,6.087,3.351l-2.378,1.483c-0.921-1.458-1.867-2.148-3.709-2.148c-3.12,0-4.808,2.532-4.808,6.547
		c0,4.016,1.688,6.547,4.808,6.547c1.867,0,3.019-0.768,3.938-2.225l2.226,1.483C160.724,158.168,158.55,159.396,155.839,159.396z"
		/>
</g>
<path style="fill:#53575A;" d="M99.997,193.671c-51.652,0-93.668-42.028-93.668-93.674c0-51.649,42.016-93.668,93.668-93.668
	c51.646,0,93.674,42.019,93.674,93.668C193.671,151.643,151.643,193.671,99.997,193.671 M99.997,0C44.859,0,0,44.859,0,99.997
	C0,155.138,44.859,200,99.997,200S200,155.138,200,99.997C200,44.859,155.134,0,99.997,0"/>
<line style="fill:none;stroke:#53575A;stroke-width:5;stroke-miterlimit:10;" x1="16.773" y1="100" x2="183.227" y2="100"/>
<g>
</g>
<g>
</g>
<g>
</g>
<g>
</g>
<g>
</g>
</svg>
