<?xml version="1.0" encoding="iso-8859-1"?>
<!-- Generator: Adobe Illustrator 23.0.2, SVG Export Plug-In . SVG Version: 6.00 Build 0)  -->
<svg version="1.1" id="Layer_1" xmlns="http://www.w3.org/2000/svg" xmlns:xlink="http://www.w3.org/1999/xlink" x="0px" y="0px"
	 viewBox="0 0 200 200" style="enable-background:new 0 0 200 200;" xml:space="preserve">
<g>
	<rect y="39.173" style="fill:none;" width="200" height="83.972"/>
	<path style="fill:#53575A;" d="M48.72,64.991v-6.361h15.59v6.361H48.72z"/>
	<path style="fill:#53575A;" d="M74.163,84.635V51.208H66.43v-4.553c4.49-0.312,8.169-1.809,8.98-5.675h5.301v43.654H74.163z"/>
	<path style="fill:#53575A;" d="M106.529,85.321c-11.288,0-17.15-9.229-17.15-22.451c0-13.221,5.987-22.575,17.274-22.575
		c11.288,0,17.15,9.229,17.15,22.451C123.804,75.966,117.816,85.321,106.529,85.321z M106.529,46.656
		c-7.608,0-10.54,6.922-10.54,16.09c0,9.167,3.056,16.214,10.664,16.214c7.671,0,10.54-6.922,10.54-16.09
		C117.193,53.703,114.199,46.656,106.529,46.656z"/>
	<path style="fill:#53575A;" d="M135.039,54.59c-3.852,0-6.87-2.984-6.87-6.905c0-3.817,3.019-6.835,6.87-6.835
		c3.887,0,6.87,3.019,6.87,6.835C141.909,51.606,138.926,54.59,135.039,54.59z M135.039,43.938c-2.082,0-3.747,1.7-3.747,3.748
		c0,2.151,1.665,3.817,3.747,3.817c2.117,0,3.747-1.666,3.747-3.817C138.786,45.638,137.156,43.938,135.039,43.938z"/>
	<path style="fill:#53575A;" d="M144.843,69.367v4.68h5.14v2.634h-5.14v7.954h-2.686V66.733h11.534v2.634H144.843z"/>
</g>
<g>
	<rect y="113.652" style="fill:none;" width="200" height="83.972"/>
	<path style="fill:#53575A;" d="M41.674,139.47v-6.361h15.59v6.361H41.674z"/>
	<path style="fill:#53575A;" d="M59.946,159.114c0.437-12.784,8.169-18.46,16.775-23.573c5.924-3.492,7.421-5.426,7.421-8.481
		c0-3.492-2.37-5.737-8.356-5.737c-3.679,0-7.733,1.684-10.539,4.365l-4.179-4.989c3.929-3.679,9.479-5.924,14.905-5.924
		c9.042,0,14.842,3.866,14.842,11.911c0,6.735-3.305,9.604-10.976,14.156c-8.357,4.927-10.727,7.733-11.724,11.911h23.136v6.361
		H59.946z"/>
	<path style="fill:#53575A;" d="M111.645,159.8c-6.174,0-12.659-2.744-15.715-7.233l4.989-4.241
		c2.681,3.367,6.797,4.989,10.726,4.989c6.985,0,9.542-2.682,9.542-7.172s-3.368-6.548-7.92-6.548h-4.054v-6.361h3.991
		c4.054,0,6.174-2.682,6.174-5.986c0-2.495-1.809-5.987-8.232-5.987c-3.43,0-6.174,1.497-8.605,4.054l-4.864-4.615
		c3.679-3.804,8.106-5.924,13.595-5.924c8.232,0,14.905,4.24,14.905,11.849c0,5.238-2.308,7.857-5.302,9.541
		c4.116,1.186,7.109,4.553,7.109,9.979C127.983,155.061,121.872,159.8,111.645,159.8z"/>
	<path style="fill:#53575A;" d="M140.219,129.069c-3.852,0-6.87-2.983-6.87-6.904c0-3.817,3.019-6.836,6.87-6.836
		c3.887,0,6.87,3.019,6.87,6.836C147.089,126.086,144.105,129.069,140.219,129.069z M140.219,118.417
		c-2.082,0-3.747,1.7-3.747,3.748c0,2.151,1.665,3.816,3.747,3.816c2.117,0,3.747-1.665,3.747-3.816
		C143.966,120.117,142.336,118.417,140.219,118.417z"/>
	<path style="fill:#53575A;" d="M154.062,159.396c-4.629,0-7.569-3.811-7.569-9.232s2.94-9.232,7.569-9.232
		c2.916,0,4.859,1.177,6.087,3.351l-2.378,1.483c-0.921-1.458-1.867-2.148-3.709-2.148c-3.119,0-4.808,2.532-4.808,6.547
		c0,4.016,1.688,6.547,4.808,6.547c1.867,0,3.018-0.768,3.938-2.225l2.226,1.483C158.947,158.168,156.773,159.396,154.062,159.396z"
		/>
</g>
<path style="fill:#53575A;" d="M99.997,193.671c-51.652,0-93.668-42.028-93.668-93.674c0-51.649,42.016-93.668,93.668-93.668
	c51.646,0,93.674,42.019,93.674,93.668C193.671,151.643,151.643,193.671,99.997,193.671 M99.997,0C44.859,0,0,44.859,0,99.997
	C0,155.138,44.859,200,99.997,200S200,155.138,200,99.997C200,44.859,155.134,0,99.997,0"/>
<line style="fill:none;stroke:#53575A;stroke-width:5;stroke-miterlimit:10;" x1="16.773" y1="100" x2="183.227" y2="100"/>
<g>
</g>
<g>
</g>
<g>
</g>
<g>
</g>
<g>
</g>
</svg>
