<?xml version="1.0" encoding="iso-8859-1"?>
<!-- Generator: Adobe Illustrator 23.0.4, SVG Export Plug-In . SVG Version: 6.00 Build 0)  -->
<svg version="1.1" id="Layer_1" xmlns="http://www.w3.org/2000/svg" xmlns:xlink="http://www.w3.org/1999/xlink" x="0px" y="0px"
	 viewBox="0 0 31.68 31.68" style="enable-background:new 0 0 31.68 31.68;" xml:space="preserve">
<g>
	<g>
		<path style="fill:#5F6062;" d="M7.824,13.868c-1.755,0-3.182,1.427-3.182,3.182c0,1.755,1.428,3.183,3.182,3.183
			c0.623,0,2.927,0.028,5.572,0.06c3.556,0.044,7.731,0.094,9.25,0.094c2.356,0,4.272-1.917,4.272-4.273
			c0-2.356-1.916-4.272-4.272-4.272c-0.736,0-1.467,0.194-2.113,0.562L19.835,12.8l-0.162-0.786
			c-0.305-1.467-1.615-2.533-3.117-2.533c-1.404,0-2.626,0.901-3.041,2.24l-0.191,0.616l-0.594-0.251
			c-0.385-0.163-0.797-0.245-1.225-0.245c-1.195,0-2.28,0.661-2.829,1.727l-0.182,0.352l-0.394-0.039
			C8.01,13.873,7.917,13.868,7.824,13.868 M22.645,21.554c-1.522,0-5.702-0.051-9.264-0.094c-2.639-0.032-4.937-0.059-5.558-0.059
			c-2.398,0-4.35-1.952-4.35-4.351c0-2.398,1.951-4.35,4.35-4.35H7.83c0.795-1.258,2.171-2.026,3.676-2.026
			c0.38,0,0.751,0.048,1.11,0.143c0.707-1.519,2.224-2.504,3.941-2.504c1.804,0,3.405,1.126,4.049,2.76
			c0.648-0.263,1.342-0.4,2.04-0.4c3,0,5.44,2.441,5.44,5.44C28.085,19.114,25.645,21.554,22.645,21.554"/>
		<path style="fill:#5F6062;" d="M15.839-0.005c-8.712,0-15.8,7.088-15.8,15.8c0,8.712,7.088,15.801,15.8,15.801
			c8.711,0,15.801-7.089,15.801-15.801C31.641,7.083,24.55-0.005,15.839-0.005 M15.839,30.595c-8.161,0-14.8-6.64-14.8-14.8
			c0-8.16,6.639-14.8,14.8-14.8c8.161,0,14.801,6.639,14.801,14.8C30.641,23.955,24,30.595,15.839,30.595"/>
	</g>
</g>
</svg>
