<?xml version="1.0" encoding="iso-8859-1"?>
<!-- Generator: Adobe Illustrator 23.0.2, SVG Export Plug-In . SVG Version: 6.00 Build 0)  -->
<svg version="1.1" id="Layer_1" xmlns="http://www.w3.org/2000/svg" xmlns:xlink="http://www.w3.org/1999/xlink" x="0px" y="0px"
	 viewBox="0 0 31.602 31.602" style="enable-background:new 0 0 31.602 31.602;" xml:space="preserve">
<path style="fill:none;" d="M31.602,15.801c0,8.726-7.073,15.801-15.8,15.801C7.075,31.602,0,24.527,0,15.801
	C0,7.075,7.075,0,15.802,0C24.528,0,31.602,7.075,31.602,15.801z"/>
<path style="fill:#5F6062;" d="M15.801,30.601c-8.161,0-14.8-6.641-14.8-14.8C1.001,7.64,7.64,1,15.801,1
	c8.16,0,14.8,6.64,14.8,14.801C30.601,23.96,23.961,30.601,15.801,30.601 M15.801,0c-8.712,0-15.8,7.089-15.8,15.801
	c0,8.712,7.088,15.8,15.8,15.8c8.712,0,15.8-7.088,15.8-15.8C31.601,7.089,24.513,0,15.801,0"/>
<path style="fill:#5F6062;" d="M24.84,23.621H6.74c-0.311,0-0.563,0.252-0.563,0.564c0,0.309,0.252,0.561,0.563,0.561h18.1
	c0.311,0,0.562-0.252,0.562-0.561C25.402,23.873,25.15,23.621,24.84,23.621"/>
<path style="fill:#5F6062;" d="M7,19.454c0.076,0,0.153-0.016,0.227-0.048c0.284-0.126,0.413-0.458,0.287-0.742l-0.661-1.492
	l11.928,4.521c0.064,0.025,0.132,0.036,0.199,0.036c0.112,0,0.224-0.034,0.319-0.099c0.152-0.107,0.242-0.278,0.242-0.464v-4.881
	c0-0.31-0.25-0.562-0.562-0.562s-0.563,0.253-0.563,0.562v4.067L7.191,16.097l1.569-0.703c0.284-0.127,0.41-0.459,0.283-0.743
	c-0.126-0.283-0.459-0.411-0.743-0.284l-2.76,1.236c-0.216,0.097-0.339,0.312-0.33,0.535c-0.005,0.124,0.034,0.24,0.104,0.34
	l1.17,2.642C6.578,19.329,6.784,19.454,7,19.454"/>
<path style="fill:#5F6062;" d="M19.02,6.642c0.312,0,0.563-0.252,0.563-0.562V4.16c0-0.312-0.252-0.563-0.563-0.563
	c-0.311,0-0.562,0.252-0.562,0.563v1.919C18.457,6.39,18.709,6.642,19.02,6.642"/>
<path style="fill:#5F6062;" d="M18.992,8.567c1.441,0,2.613,1.173,2.613,2.614c0,1.441-1.172,2.612-2.613,2.612
	c-1.441,0-2.614-1.172-2.614-2.612C16.378,9.74,17.551,8.567,18.992,8.567 M18.992,14.919c2.061,0,3.738-1.677,3.738-3.737
	c0-2.062-1.678-3.739-3.738-3.739c-2.062,0-3.739,1.677-3.739,3.739C15.253,13.242,16.93,14.919,18.992,14.919"/>
<path style="fill:#5F6062;" d="M26.022,10.64h-1.92c-0.312,0-0.562,0.252-0.562,0.564c0,0.31,0.25,0.561,0.562,0.561h1.92
	c0.31,0,0.564-0.252,0.564-0.561C26.586,10.892,26.332,10.64,26.022,10.64"/>
<path style="fill:#5F6062;" d="M11.977,11.765h1.92c0.31,0,0.562-0.252,0.562-0.562c0-0.311-0.252-0.562-0.562-0.562h-1.92
	c-0.311,0-0.563,0.252-0.563,0.562C11.414,11.513,11.666,11.765,11.977,11.765"/>
<path style="fill:#5F6062;" d="M22.217,14.399c-0.221,0.221-0.221,0.575,0,0.795l1.346,1.347c0.109,0.109,0.254,0.165,0.397,0.165
	c0.144,0,0.288-0.056,0.397-0.165c0.219-0.221,0.219-0.576,0-0.795l-1.346-1.347C22.793,14.179,22.436,14.179,22.217,14.399"/>
<path style="fill:#5F6062;" d="M14.988,7.966c0.11,0.11,0.254,0.165,0.398,0.165c0.144,0,0.288-0.055,0.397-0.165
	c0.22-0.219,0.221-0.574,0.001-0.795l-1.346-1.347c-0.22-0.219-0.577-0.22-0.796,0c-0.219,0.22-0.22,0.576,0,0.795L14.988,7.966z"/>
<path style="fill:#5F6062;" d="M22.614,8.131c0.143,0,0.288-0.055,0.397-0.165l1.346-1.347c0.22-0.219,0.22-0.575,0-0.795
	c-0.219-0.22-0.576-0.219-0.795,0l-1.346,1.347c-0.22,0.221-0.22,0.576,0,0.796C22.326,8.076,22.471,8.131,22.614,8.131"/>
<path style="fill:#5F6062;" d="M14.988,14.399l-1.346,1.347c-0.22,0.219-0.22,0.574-0.001,0.795c0.11,0.109,0.254,0.165,0.398,0.165
	c0.144,0,0.288-0.056,0.398-0.165l1.346-1.347c0.22-0.22,0.22-0.574,0-0.795C15.564,14.179,15.208,14.179,14.988,14.399"/>
</svg>
