<?xml version="1.0" encoding="iso-8859-1"?>
<!-- Generator: Adobe Illustrator 23.0.2, SVG Export Plug-In . SVG Version: 6.00 Build 0)  -->
<svg version="1.1" id="Layer_1" xmlns="http://www.w3.org/2000/svg" xmlns:xlink="http://www.w3.org/1999/xlink" x="0px" y="0px"
	 viewBox="0 0 31.699 31.701" style="enable-background:new 0 0 31.699 31.701;" xml:space="preserve">
<path style="fill:#5E5F61;" d="M15.85,30.698c-8.188,0-14.848-6.662-14.848-14.848S7.663,1.003,15.85,1.003
	c8.187,0,14.847,6.66,14.847,14.846S24.037,30.698,15.85,30.698 M15.85,0C7.11,0,0,7.11,0,15.85c0,8.74,7.11,15.851,15.85,15.851
	c8.739,0,15.849-7.111,15.849-15.851C31.699,7.11,24.589,0,15.85,0"/>
<path style="fill:#5E5F61;" d="M12.525,24.561H9.951L25.063,9.451c0.228-0.227,0.228-0.596,0-0.823
	c-0.228-0.227-0.596-0.227-0.823,0L9.138,23.73v-2.556c0-0.322-0.26-0.583-0.582-0.583c-0.322,0-0.583,0.261-0.583,0.583v3.97
	c0,0.321,0.261,0.582,0.583,0.582h3.969c0.321,0,0.582-0.261,0.582-0.582C13.107,24.822,12.847,24.561,12.525,24.561"/>
<path style="fill:#5E5F61;" d="M26.704,11.833c-0.227-0.227-0.596-0.227-0.823,0L15.014,22.699c-0.227,0.228-0.227,0.596,0,0.824
	c0.114,0.113,0.263,0.169,0.411,0.169c0.15,0,0.298-0.057,0.413-0.169l10.866-10.867C26.931,12.429,26.931,12.06,26.704,11.833"/>
<path style="fill:#5E5F61;" d="M13.394,16.111c1.592-1.592,2.776-5.05,4.76-7.853c-2.818,1.97-6.261,3.167-7.853,4.76
	c-0.854,0.854-0.854,2.239,0,3.094C11.154,16.966,12.54,16.966,13.394,16.111"/>
</svg>
