<?xml version="1.0" encoding="iso-8859-1"?>
<!-- Generator: Adobe Illustrator 23.0.2, SVG Export Plug-In . SVG Version: 6.00 Build 0)  -->
<svg version="1.1" id="Layer_1" xmlns="http://www.w3.org/2000/svg" xmlns:xlink="http://www.w3.org/1999/xlink" x="0px" y="0px"
	 viewBox="0 0 31.602 31.602" style="enable-background:new 0 0 31.602 31.602;" xml:space="preserve">
<path style="fill:none;" d="M31.602,15.801c0,8.726-7.073,15.801-15.8,15.801C7.075,31.602,0,24.527,0,15.801
	C0,7.075,7.075,0,15.802,0C24.528,0,31.602,7.075,31.602,15.801z"/>
<path style="fill:#5F6062;" d="M15.801,30.601c-8.161,0-14.8-6.641-14.8-14.8C1.001,7.64,7.64,1,15.801,1
	c8.159,0,14.8,6.64,14.8,14.801C30.601,23.96,23.96,30.601,15.801,30.601 M15.801,0c-8.712,0-15.8,7.089-15.8,15.801
	c0,8.712,7.088,15.8,15.8,15.8c8.712,0,15.8-7.088,15.8-15.8C31.601,7.089,24.513,0,15.801,0"/>
<path style="fill:#5F6062;" d="M23.77,6.63c-0.31,0-0.562,0.252-0.562,0.563v17.099c0,0.312,0.253,0.563,0.562,0.563
	c0.311,0,0.563-0.252,0.563-0.563V7.193C24.333,6.882,24.081,6.63,23.77,6.63"/>
<path style="fill:#5F6062;" d="M26.573,8.799c-0.311,0-0.562,0.252-0.562,0.563v12.726c0,0.312,0.252,0.563,0.562,0.563
	c0.312,0,0.563-0.252,0.563-0.563V9.362C27.137,9.051,26.885,8.799,26.573,8.799"/>
<path style="fill:#5F6062;" d="M16.914,8.226l1.652-0.003c0.311-0.001,0.562-0.253,0.562-0.564
	c-0.001-0.311-0.253-0.561-0.562-0.561h-0.001l-3.025,0.005c-0.31,0.001-0.561,0.252-0.561,0.562l-0.006,3.035
	c-0.001,0.312,0.239,0.558,0.561,0.564c0.311,0,0.562-0.251,0.562-0.562L16.1,9.003l3.485,3.485
	c-1.299,0.422-4.036,1.027-6.668-0.192c-4.171-1.934-7.491,0.966-7.631,1.091c-0.23,0.207-0.251,0.561-0.045,0.793
	c0.11,0.125,0.265,0.188,0.42,0.188c0.133,0,0.267-0.046,0.373-0.141c0.117-0.104,2.918-2.528,6.41-0.91
	c4.075,1.888,8.219-0.019,8.393-0.101c0.166-0.078,0.283-0.232,0.315-0.412c0.03-0.182-0.027-0.365-0.157-0.494L16.914,8.226z"/>
<path style="fill:#5F6062;" d="M16.913,17.279l1.653-0.003c0.312-0.001,0.562-0.253,0.562-0.564c0-0.31-0.253-0.561-0.562-0.561
	h-0.002l-3.024,0.006c-0.311,0.001-0.561,0.252-0.561,0.562l-0.006,3.034c0,0.312,0.272,0.554,0.564,0.565
	c0.309,0,0.561-0.251,0.561-0.562l0.004-1.697l3.485,3.484c-1.301,0.424-4.037,1.026-6.669-0.192
	c-4.17-1.933-7.491,0.967-7.63,1.091c-0.232,0.207-0.252,0.561-0.046,0.793c0.11,0.125,0.265,0.188,0.421,0.188
	c0.132,0,0.266-0.046,0.373-0.141c0.116-0.104,2.918-2.528,6.408-0.91c4.075,1.89,8.221-0.018,8.396-0.101
	c0.165-0.078,0.282-0.232,0.313-0.412c0.032-0.182-0.027-0.366-0.156-0.495L16.913,17.279z"/>
</svg>
