<?xml version="1.0" encoding="iso-8859-1"?>
<!-- Generator: Adobe Illustrator 23.1.1, SVG Export Plug-In . SVG Version: 6.00 Build 0)  -->
<svg version="1.1" id="Layer_1" xmlns="http://www.w3.org/2000/svg" xmlns:xlink="http://www.w3.org/1999/xlink" x="0px" y="0px"
	 viewBox="0 0 31.602 31.602" style="enable-background:new 0 0 31.602 31.602;" xml:space="preserve">
<g>
	<path style="fill:#5F6062;" d="M13.754,23.098H8.406c-1.217,0-2.111-0.386-2.518-1.086c-0.405-0.696-0.299-1.657,0.299-2.706
		l2.291-4.022l0.859,2.558c0.079,0.235,0.298,0.383,0.533,0.383c0.059,0,0.12-0.009,0.179-0.029
		c0.294-0.099,0.453-0.418,0.354-0.712l-1.348-4.011c-0.003-0.009-0.01-0.015-0.014-0.024c-0.003-0.009-0.002-0.017-0.006-0.026
		c-0.012-0.027-0.034-0.045-0.049-0.069c-0.021-0.032-0.039-0.064-0.065-0.091c-0.026-0.027-0.057-0.046-0.088-0.067
		c-0.028-0.019-0.054-0.04-0.086-0.054c-0.036-0.016-0.075-0.023-0.114-0.031c-0.031-0.007-0.061-0.015-0.093-0.016
		c-0.04-0.002-0.08,0.007-0.12,0.015c-0.027,0.005-0.053,0.001-0.079,0.01c-0.009,0.003-0.015,0.01-0.023,0.014
		c-0.009,0.003-0.018,0.002-0.026,0.006l-3.869,1.726c-0.284,0.127-0.411,0.459-0.285,0.743c0.093,0.21,0.299,0.334,0.514,0.334
		c0.076,0,0.154-0.016,0.229-0.049l2.62-1.169L5.21,18.749c-0.804,1.411-0.909,2.771-0.294,3.828
		c0.617,1.061,1.856,1.646,3.491,1.646h5.348c0.311,0,0.562-0.252,0.562-0.562C14.317,23.35,14.065,23.098,13.754,23.098z"/>
	<path style="fill:#5F6062;" d="M20.845,11.022c0.005,0.001,0.009,0.004,0.014,0.004c0.021,0.002,0.04,0.003,0.061,0.003
		c0.068,0,0.134-0.014,0.196-0.037c0.022-0.008,0.04-0.024,0.061-0.035c0.037-0.019,0.074-0.038,0.105-0.065
		c0.021-0.018,0.037-0.041,0.055-0.063c0.024-0.028,0.049-0.054,0.068-0.087c0.016-0.027,0.024-0.058,0.035-0.088
		c0.009-0.026,0.024-0.049,0.03-0.077c0.002-0.008-0.001-0.016,0-0.024c0.002-0.01,0.008-0.019,0.009-0.029l0.445-4.212
		c0.032-0.309-0.191-0.586-0.5-0.619c-0.304-0.025-0.587,0.19-0.619,0.5L20.541,8.69l-1.748-3.03
		c-0.817-1.417-1.964-2.23-3.145-2.23c-0.002,0-0.004,0-0.007,0c-1.099,0.003-2.092,0.685-2.796,1.919l-2.381,4.178
		c-0.154,0.27-0.059,0.613,0.211,0.767c0.27,0.154,0.613,0.06,0.767-0.21l2.381-4.178c0.496-0.87,1.143-1.35,1.821-1.351
		c0.733,0.022,1.561,0.605,2.174,1.667l1.987,3.444l-2.92-0.594c-0.308-0.065-0.601,0.135-0.663,0.439
		c-0.062,0.305,0.135,0.602,0.439,0.664l4.146,0.844C20.82,11.021,20.833,11.021,20.845,11.022z"/>
	<path style="fill:#5F6062;" d="M26.258,18.63l-2.602-4.517c-0.153-0.268-0.496-0.363-0.768-0.207
		c-0.269,0.155-0.361,0.499-0.206,0.768l2.602,4.517c0.642,1.114,0.783,2.148,0.388,2.837c-0.317,0.552-0.989,0.859-1.894,0.864
		l-4.109,0.024l2.026-2.02c0.22-0.22,0.22-0.576,0.001-0.795c-0.22-0.219-0.574-0.221-0.796-0.001l-2.996,2.988
		c-0.007,0.007-0.009,0.015-0.015,0.022c-0.006,0.007-0.015,0.01-0.021,0.017c-0.019,0.023-0.026,0.052-0.041,0.077
		c-0.019,0.032-0.04,0.062-0.052,0.096c-0.012,0.035-0.016,0.071-0.021,0.108c-0.005,0.035-0.012,0.068-0.01,0.103
		c0.002,0.037,0.012,0.071,0.021,0.106c0.008,0.035,0.015,0.069,0.03,0.101c0.015,0.033,0.039,0.062,0.061,0.092
		c0.017,0.024,0.026,0.051,0.048,0.072c0.007,0.007,0.016,0.009,0.023,0.016c0.007,0.006,0.01,0.015,0.017,0.021l3.263,2.701
		c0.104,0.087,0.231,0.129,0.358,0.129c0.161,0,0.322-0.069,0.433-0.204c0.198-0.24,0.164-0.594-0.075-0.792l-2.069-1.713
		l3.931-0.023c1.322-0.008,2.339-0.516,2.863-1.429C27.246,21.543,27.105,20.101,26.258,18.63z"/>
</g>
<path style="fill:#5F6062;" d="M15.736,30.601c-8.161,0-14.8-6.641-14.8-14.801C0.936,7.64,7.575,1,15.736,1
	c8.16,0,14.8,6.639,14.8,14.8C30.535,23.961,23.896,30.601,15.736,30.601 M15.736,0.001c-8.712,0-15.8,7.088-15.8,15.8
	c0,8.712,7.088,15.801,15.8,15.801c8.712,0,15.8-7.088,15.8-15.801C31.535,7.088,24.448,0.001,15.736,0.001"/>
</svg>
