<?xml version="1.0" standalone="no"?>
<!DOCTYPE svg PUBLIC "-//W3C//DTD SVG 20010904//EN"
 "http://www.w3.org/TR/2001/REC-SVG-20010904/DTD/svg10.dtd">
<svg version="1.0" xmlns="http://www.w3.org/2000/svg"
 width="512.000000pt" height="512.000000pt" viewBox="0 0 512.000000 512.000000"
 preserveAspectRatio="xMidYMid meet">
<metadata>
Created by potrace 1.14, written by Peter Selinger 2001-2017
</metadata>
<g transform="translate(0.000000,512.000000) scale(0.100000,-0.100000)"
fill="#000000" stroke="none">
<path d="M2437 4803 c-1 0 -33 -4 -72 -7 -99 -8 -150 -15 -230 -32 -38 -8 -81
-17 -95 -20 -39 -7 -219 -63 -277 -86 -29 -11 -54 -20 -57 -20 -3 1 -63 -28
-133 -63 -427 -213 -774 -547 -991 -955 -91 -170 -153 -333 -198 -512 -24 -98
-26 -109 -39 -188 -4 -25 -9 -54 -11 -65 -8 -40 -18 -212 -18 -310 -1 -433
128 -856 372 -1224 577 -873 1678 -1230 2659 -865 803 299 1380 1059 1449
1909 12 147 6 402 -10 492 -2 10 -7 38 -11 63 -13 78 -16 92 -35 175 -108 458
-401 918 -775 1214 -354 281 -770 449 -1205 487 -66 6 -319 12 -323 7z"/>
</g>
</svg>
